<?xml version="1.0" encoding="UTF-8"?><svg xmlns="http://www.w3.org/2000/svg" xmlns:xlink="http://www.w3.org/1999/xlink" fill-opacity="1" color-rendering="auto" color-interpolation="auto" text-rendering="auto" stroke="black" stroke-linecap="square" width="1180" stroke-miterlimit="10" shape-rendering="auto" stroke-opacity="1" fill="black" stroke-dasharray="none" font-weight="normal" stroke-width="1" height="562" font-family="'Dialog'" font-style="normal" stroke-linejoin="miter" font-size="12px" stroke-dashoffset="0" image-rendering="auto">
  <!--Generated by ySVG 2.5-->
  <defs id="genericDefs"/>
  <g>
    <defs id="defs1">
      <clipPath clipPathUnits="userSpaceOnUse" id="clipPath1">
        <path d="M0 0 L1180 0 L1180 562 L0 562 L0 0 Z"/>
      </clipPath>
      <clipPath clipPathUnits="userSpaceOnUse" id="clipPath2">
        <path d="M-15 -557 L1165 -557 L1165 5 L-15 5 L-15 -557 Z"/>
      </clipPath>
    </defs>
    <g fill="white" text-rendering="geometricPrecision" shape-rendering="geometricPrecision" transform="translate(15,557)" stroke="white">
      <rect x="-15" width="1180" height="562" y="-557" clip-path="url(#clipPath2)" stroke="none"/>
    </g>
    <g fill="rgb(255,204,0)" text-rendering="geometricPrecision" shape-rendering="geometricPrecision" transform="matrix(1,0,0,1,15,557)" stroke="rgb(255,204,0)">
      <rect x="0" width="214.96" height="26.16" y="-36.1602" clip-path="url(#clipPath2)" stroke="none"/>
    </g>
    <g text-rendering="geometricPrecision" stroke-miterlimit="1.45" shape-rendering="geometricPrecision" transform="matrix(1,0,0,1,15,557)" stroke-linecap="butt">
      <rect fill="none" x="0" width="214.96" height="26.16" y="-36.1602" clip-path="url(#clipPath2)"/>
      <text x="51.646" xml:space="preserve" y="-18.545" clip-path="url(#clipPath2)" font-family="sans-serif" stroke="none">aura.woop.ac 7654</text>
    </g>
    <g fill="rgb(255,204,0)" text-rendering="geometricPrecision" shape-rendering="geometricPrecision" transform="matrix(1,0,0,1,15,557)" stroke="rgb(255,204,0)">
      <rect x="0" width="214.96" height="26.16" y="-429.2824" clip-path="url(#clipPath2)" stroke="none"/>
    </g>
    <g text-rendering="geometricPrecision" stroke-miterlimit="1.45" shape-rendering="geometricPrecision" transform="matrix(1,0,0,1,15,557)" stroke-linecap="butt">
      <rect fill="none" x="0" width="214.96" height="26.16" y="-429.2824" clip-path="url(#clipPath2)"/>
      <text x="47.8521" xml:space="preserve" y="-411.6672" clip-path="url(#clipPath2)" font-family="sans-serif" stroke="none">aura.woop.ac 30000</text>
    </g>
    <g fill="rgb(255,204,0)" text-rendering="geometricPrecision" shape-rendering="geometricPrecision" transform="matrix(1,0,0,1,15,557)" stroke="rgb(255,204,0)">
      <rect x="0" width="214.96" height="26.16" y="-541.603" clip-path="url(#clipPath2)" stroke="none"/>
    </g>
    <g text-rendering="geometricPrecision" stroke-miterlimit="1.45" shape-rendering="geometricPrecision" transform="matrix(1,0,0,1,15,557)" stroke-linecap="butt">
      <rect fill="none" x="0" width="214.96" height="26.16" y="-541.603" clip-path="url(#clipPath2)"/>
      <text x="28.2642" xml:space="preserve" y="-523.9879" clip-path="url(#clipPath2)" font-family="sans-serif" stroke="none">califa.actionfps.com 28763</text>
    </g>
    <g fill="rgb(255,204,0)" text-rendering="geometricPrecision" shape-rendering="geometricPrecision" transform="matrix(1,0,0,1,15,557)" stroke="rgb(255,204,0)">
      <rect x="0" width="214.96" height="26.16" y="-485.4427" clip-path="url(#clipPath2)" stroke="none"/>
    </g>
    <g text-rendering="geometricPrecision" stroke-miterlimit="1.45" shape-rendering="geometricPrecision" transform="matrix(1,0,0,1,15,557)" stroke-linecap="butt">
      <rect fill="none" x="0" width="214.96" height="26.16" y="-485.4427" clip-path="url(#clipPath2)"/>
      <text x="32.0581" xml:space="preserve" y="-467.8275" clip-path="url(#clipPath2)" font-family="sans-serif" stroke="none">califa.actionfps.com 1999</text>
    </g>
    <g fill="rgb(255,204,0)" text-rendering="geometricPrecision" shape-rendering="geometricPrecision" transform="matrix(1,0,0,1,15,557)" stroke="rgb(255,204,0)">
      <rect x="0" width="214.96" height="26.16" y="-373.1221" clip-path="url(#clipPath2)" stroke="none"/>
    </g>
    <g text-rendering="geometricPrecision" stroke-miterlimit="1.45" shape-rendering="geometricPrecision" transform="matrix(1,0,0,1,15,557)" stroke-linecap="butt">
      <rect fill="none" x="0" width="214.96" height="26.16" y="-373.1221" clip-path="url(#clipPath2)"/>
      <text x="47.8521" xml:space="preserve" y="-355.5069" clip-path="url(#clipPath2)" font-family="sans-serif" stroke="none">aura.woop.ac 10000</text>
    </g>
    <g fill="rgb(255,204,0)" text-rendering="geometricPrecision" shape-rendering="geometricPrecision" transform="matrix(1,0,0,1,15,557)" stroke="rgb(255,204,0)">
      <rect x="0" width="214.96" height="26.16" y="-316.9617" clip-path="url(#clipPath2)" stroke="none"/>
    </g>
    <g text-rendering="geometricPrecision" stroke-miterlimit="1.45" shape-rendering="geometricPrecision" transform="matrix(1,0,0,1,15,557)" stroke-linecap="butt">
      <rect fill="none" x="0" width="214.96" height="26.16" y="-316.9617" clip-path="url(#clipPath2)"/>
      <text x="68.7202" xml:space="preserve" y="-299.3466" clip-path="url(#clipPath2)" font-family="sans-serif" stroke="none">aura.woop.ac</text>
    </g>
    <g fill="rgb(255,204,0)" text-rendering="geometricPrecision" shape-rendering="geometricPrecision" transform="matrix(1,0,0,1,15,557)" stroke="rgb(255,204,0)">
      <rect x="0" width="214.96" height="26.16" y="-260.8014" clip-path="url(#clipPath2)" stroke="none"/>
    </g>
    <g text-rendering="geometricPrecision" stroke-miterlimit="1.45" shape-rendering="geometricPrecision" transform="matrix(1,0,0,1,15,557)" stroke-linecap="butt">
      <rect fill="none" x="0" width="214.96" height="26.16" y="-260.8014" clip-path="url(#clipPath2)"/>
      <text x="51.646" xml:space="preserve" y="-243.1863" clip-path="url(#clipPath2)" font-family="sans-serif" stroke="none">aura.woop.ac 4999</text>
    </g>
    <g fill="rgb(255,204,0)" text-rendering="geometricPrecision" shape-rendering="geometricPrecision" transform="matrix(1,0,0,1,15,557)" stroke="rgb(255,204,0)">
      <rect x="0" width="214.96" height="26.16" y="-204.6411" clip-path="url(#clipPath2)" stroke="none"/>
    </g>
    <g text-rendering="geometricPrecision" stroke-miterlimit="1.45" shape-rendering="geometricPrecision" transform="matrix(1,0,0,1,15,557)" stroke-linecap="butt">
      <rect fill="none" x="0" width="214.96" height="26.16" y="-204.6411" clip-path="url(#clipPath2)"/>
      <text x="51.646" xml:space="preserve" y="-187.026" clip-path="url(#clipPath2)" font-family="sans-serif" stroke="none">aura.woop.ac 3999</text>
    </g>
    <g fill="rgb(255,204,0)" text-rendering="geometricPrecision" shape-rendering="geometricPrecision" transform="matrix(1,0,0,1,15,557)" stroke="rgb(255,204,0)">
      <rect x="0" width="214.96" height="26.16" y="-148.4808" clip-path="url(#clipPath2)" stroke="none"/>
    </g>
    <g text-rendering="geometricPrecision" stroke-miterlimit="1.45" shape-rendering="geometricPrecision" transform="matrix(1,0,0,1,15,557)" stroke-linecap="butt">
      <rect fill="none" x="0" width="214.96" height="26.16" y="-148.4808" clip-path="url(#clipPath2)"/>
      <text x="51.646" xml:space="preserve" y="-130.8656" clip-path="url(#clipPath2)" font-family="sans-serif" stroke="none">aura.woop.ac 2999</text>
    </g>
    <g fill="rgb(255,204,0)" text-rendering="geometricPrecision" shape-rendering="geometricPrecision" transform="matrix(1,0,0,1,15,557)" stroke="rgb(255,204,0)">
      <rect x="0" width="214.96" height="26.16" y="-92.3205" clip-path="url(#clipPath2)" stroke="none"/>
    </g>
    <g text-rendering="geometricPrecision" stroke-miterlimit="1.45" shape-rendering="geometricPrecision" transform="matrix(1,0,0,1,15,557)" stroke-linecap="butt">
      <rect fill="none" x="0" width="214.96" height="26.16" y="-92.3205" clip-path="url(#clipPath2)"/>
      <text x="51.646" xml:space="preserve" y="-74.7053" clip-path="url(#clipPath2)" font-family="sans-serif" stroke="none">aura.woop.ac 1999</text>
    </g>
    <g fill="rgb(255,204,0)" text-rendering="geometricPrecision" shape-rendering="geometricPrecision" transform="matrix(1,0,0,1,15,557)" stroke="rgb(255,204,0)">
      <rect x="916.72" width="232.4" height="50" y="-497.3627" clip-path="url(#clipPath2)" stroke="none"/>
    </g>
    <g text-rendering="geometricPrecision" stroke-miterlimit="1.45" shape-rendering="geometricPrecision" transform="matrix(1,0,0,1,15,557)" stroke-linecap="butt">
      <rect fill="none" x="916.72" width="232.4" height="50" y="-497.3627" clip-path="url(#clipPath2)"/>
      <text x="958.5469" xml:space="preserve" y="-467.8275" clip-path="url(#clipPath2)" font-family="sans-serif" stroke="none">actionfps.com web server</text>
    </g>
    <g fill="rgb(255,204,0)" text-rendering="geometricPrecision" shape-rendering="geometricPrecision" transform="matrix(1,0,0,1,15,557)" stroke="rgb(255,204,0)">
      <rect x="738.32" width="148.4" height="30" y="-487.3627" clip-path="url(#clipPath2)" stroke="none"/>
    </g>
    <g text-rendering="geometricPrecision" stroke-miterlimit="1.45" shape-rendering="geometricPrecision" transform="matrix(1,0,0,1,15,557)" stroke-linecap="butt">
      <rect fill="none" x="738.32" width="148.4" height="30" y="-487.3627" clip-path="url(#clipPath2)"/>
      <text x="792.4429" xml:space="preserve" y="-467.8275" clip-path="url(#clipPath2)" font-family="sans-serif" stroke="none">log file</text>
    </g>
    <g fill="rgb(255,204,0)" text-rendering="geometricPrecision" shape-rendering="geometricPrecision" transform="matrix(1,0,0,1,15,557)" stroke="rgb(255,204,0)">
      <rect x="559.92" width="148.4" height="26.16" y="-485.4427" clip-path="url(#clipPath2)" stroke="none"/>
    </g>
    <g text-rendering="geometricPrecision" stroke-miterlimit="1.45" shape-rendering="geometricPrecision" transform="matrix(1,0,0,1,15,557)" stroke-linecap="butt">
      <rect fill="none" x="559.92" width="148.4" height="26.16" y="-485.4427" clip-path="url(#clipPath2)"/>
      <text x="572.7343" xml:space="preserve" y="-467.8275" clip-path="url(#clipPath2)" font-family="sans-serif" stroke="none">actionfps.com syslog</text>
    </g>
    <g fill="rgb(255,204,0)" text-rendering="geometricPrecision" shape-rendering="geometricPrecision" transform="matrix(1,0,0,1,15,557)" stroke="rgb(255,204,0)">
      <rect x="304.96" width="214.96" height="26.16" y="-92.3205" clip-path="url(#clipPath2)" stroke="none"/>
    </g>
    <g text-rendering="geometricPrecision" stroke-miterlimit="1.45" shape-rendering="geometricPrecision" transform="matrix(1,0,0,1,15,557)" stroke-linecap="butt">
      <rect fill="none" x="304.96" width="214.96" height="26.16" y="-92.3205" clip-path="url(#clipPath2)"/>
      <text x="353.3687" xml:space="preserve" y="-74.7053" clip-path="url(#clipPath2)" font-family="sans-serif" stroke="none">aura.woop.ac syslog</text>
    </g>
    <g fill="rgb(255,204,0)" text-rendering="geometricPrecision" shape-rendering="geometricPrecision" transform="matrix(1,0,0,1,15,557)" stroke="rgb(255,204,0)">
      <rect x="304.96" width="214.96" height="26.16" y="-485.4427" clip-path="url(#clipPath2)" stroke="none"/>
    </g>
    <g text-rendering="geometricPrecision" stroke-miterlimit="1.45" shape-rendering="geometricPrecision" transform="matrix(1,0,0,1,15,557)" stroke-linecap="butt">
      <rect fill="none" x="304.96" width="214.96" height="26.16" y="-485.4427" clip-path="url(#clipPath2)"/>
      <text x="333.7808" xml:space="preserve" y="-467.8275" clip-path="url(#clipPath2)" font-family="sans-serif" stroke="none">califa.actionfps.com syslog</text>
      <path fill="none" d="M886.72 -472.3627 L908.72 -472.3627" clip-path="url(#clipPath2)"/>
      <path d="M916.72 -472.3627 L904.72 -477.3627 L907.72 -472.3627 L904.72 -467.3627 Z" clip-path="url(#clipPath2)" stroke="none"/>
      <path fill="none" d="M708.32 -472.3627 L730.32 -472.3627" clip-path="url(#clipPath2)"/>
      <path d="M738.32 -472.3627 L726.32 -477.3627 L729.32 -472.3627 L726.32 -467.3627 Z" clip-path="url(#clipPath2)" stroke="none"/>
      <path fill="none" d="M214.96 -23.0802 L224.96 -23.0802 L224.96 -77.2282 L296.9228 -77.2282" clip-path="url(#clipPath2)"/>
      <path d="M304.9228 -77.2282 L292.9228 -82.2282 L295.9228 -77.2282 L292.9228 -72.2282 Z" clip-path="url(#clipPath2)" stroke="none"/>
      <path fill="none" d="M214.96 -416.2024 L274.96 -416.2024 L274.96 -91.3143 L296.933 -91.3143" clip-path="url(#clipPath2)"/>
      <path d="M304.933 -91.3143 L292.933 -96.3143 L295.933 -91.3143 L292.933 -86.3143 Z" clip-path="url(#clipPath2)" stroke="none"/>
      <path fill="none" d="M214.96 -360.0421 L264.96 -360.0421 L264.96 -89.302 L296.9625 -89.302" clip-path="url(#clipPath2)"/>
      <path d="M304.9625 -89.302 L292.9625 -94.302 L295.9625 -89.302 L292.9625 -84.302 Z" clip-path="url(#clipPath2)" stroke="none"/>
      <path fill="none" d="M214.96 -303.8817 L254.96 -303.8817 L254.96 -87.2897 L296.9799 -87.2897" clip-path="url(#clipPath2)"/>
      <path d="M304.9799 -87.2897 L292.9799 -92.2897 L295.9799 -87.2897 L292.9799 -82.2897 Z" clip-path="url(#clipPath2)" stroke="none"/>
      <path fill="none" d="M214.96 -247.7214 L244.96 -247.7214 L244.96 -85.2774 L296.9437 -85.2774" clip-path="url(#clipPath2)"/>
      <path d="M304.9437 -85.2774 L292.9437 -90.2774 L295.9437 -85.2774 L292.9437 -80.2774 Z" clip-path="url(#clipPath2)" stroke="none"/>
      <path fill="none" d="M214.96 -191.5611 L234.96 -191.5611 L234.96 -83.2651 L296.9381 -83.2651" clip-path="url(#clipPath2)"/>
      <path d="M304.9381 -83.2651 L292.9381 -88.2651 L295.9381 -83.2651 L292.9381 -78.2651 Z" clip-path="url(#clipPath2)" stroke="none"/>
      <path fill="none" d="M214.96 -135.4008 L224.96 -135.4008 L224.96 -81.2528 L296.9228 -81.2528" clip-path="url(#clipPath2)"/>
      <path d="M304.9228 -81.2528 L292.9228 -86.2528 L295.9228 -81.2528 L292.9228 -76.2528 Z" clip-path="url(#clipPath2)" stroke="none"/>
      <path fill="none" d="M214.96 -79.2405 L296.96 -79.2405" clip-path="url(#clipPath2)"/>
      <path d="M304.96 -79.2405 L292.96 -84.2405 L295.96 -79.2405 L292.96 -74.2405 Z" clip-path="url(#clipPath2)" stroke="none"/>
      <path fill="none" d="M519.92 -79.2405 L529.92 -79.2405 L529.92 -463.6427 L551.9131 -463.6427" clip-path="url(#clipPath2)"/>
      <path d="M559.9131 -463.6427 L547.9131 -468.6427 L550.9131 -463.6427 L547.9131 -458.6427 Z" clip-path="url(#clipPath2)" stroke="none"/>
      <path fill="none" d="M214.96 -528.523 L224.96 -528.523 L224.96 -481.0827 L296.9228 -481.0827" clip-path="url(#clipPath2)"/>
      <path d="M304.9228 -481.0827 L292.9228 -486.0827 L295.9228 -481.0827 L292.9228 -476.0827 Z" clip-path="url(#clipPath2)" stroke="none"/>
      <path fill="none" d="M214.96 -472.3627 L296.96 -472.3627" clip-path="url(#clipPath2)"/>
      <path d="M304.96 -472.3627 L292.96 -477.3627 L295.96 -472.3627 L292.96 -467.3627 Z" clip-path="url(#clipPath2)" stroke="none"/>
      <path fill="none" d="M519.92 -472.3627 L551.92 -472.3627" clip-path="url(#clipPath2)"/>
      <path d="M559.92 -472.3627 L547.92 -477.3627 L550.92 -472.3627 L547.92 -467.3627 Z" clip-path="url(#clipPath2)" stroke="none"/>
    </g>
  </g>
</svg>
