<?xml version="1.0" encoding="UTF-8" standalone="no"?>
<!DOCTYPE svg PUBLIC "-//W3C//DTD SVG 1.1//EN"
 "http://www.w3.org/Graphics/SVG/1.1/DTD/svg11.dtd">
<!-- Generated by graphviz version 2.40.1 (20161225.0304)
 -->
<!-- Title: %3 Pages: 1 -->
<svg width="1228pt" height="419pt"
 viewBox="0.00 0.00 1227.63 419.00" xmlns="http://www.w3.org/2000/svg" xmlns:xlink="http://www.w3.org/1999/xlink">
<g id="graph0" class="graph" transform="scale(1 1) rotate(0) translate(4 415)">
<title>%3</title>
<polygon fill="#ffffff" stroke="transparent" points="-4,4 -4,-415 1223.6279,-415 1223.6279,4 -4,4"/>
<!-- actionfps -->
<g id="node1" class="node">
<title>actionfps</title>
<polygon fill="none" stroke="#000000" points="5.438,-135.5 5.438,-171.5 72.7554,-171.5 72.7554,-135.5 5.438,-135.5"/>
<text text-anchor="middle" x="39.0967" y="-149.3" font-family="Times,serif" font-size="14.00" fill="#000000">actionfps</text>
</g>
<!-- accumulation -->
<g id="node2" class="node">
<title>accumulation</title>
<polygon fill="none" stroke="#000000" points="726.0723,-239.5 726.0723,-275.5 817.4863,-275.5 817.4863,-239.5 726.0723,-239.5"/>
<text text-anchor="middle" x="771.7793" y="-253.3" font-family="Times,serif" font-size="14.00" fill="#000000">accumulation</text>
</g>
<!-- clan&#45;stats -->
<g id="node3" class="node">
<title>clan&#45;stats</title>
<polygon fill="none" stroke="#000000" points="884.8291,-310.5 884.8291,-346.5 953.6982,-346.5 953.6982,-310.5 884.8291,-310.5"/>
<text text-anchor="middle" x="919.2637" y="-324.3" font-family="Times,serif" font-size="14.00" fill="#000000">clan&#45;stats</text>
</g>
<!-- accumulation&#45;&gt;clan&#45;stats -->
<g id="edge1" class="edge">
<title>accumulation&#45;&gt;clan&#45;stats</title>
<path fill="none" stroke="#000000" d="M809.6279,-275.5776C809.6279,-294.0362 809.6279,-320 809.6279,-320 809.6279,-320 874.5742,-320 874.5742,-320"/>
<polygon fill="#000000" stroke="#000000" points="874.5743,-323.5001 884.5742,-320 874.5742,-316.5001 874.5743,-323.5001"/>
</g>
<!-- clans&#45;clan -->
<g id="node4" class="node">
<title>clans&#45;clan</title>
<polygon fill="none" stroke="#000000" points="1146.8828,-283.5 1146.8828,-319.5 1219.6279,-319.5 1219.6279,-283.5 1146.8828,-283.5"/>
<text text-anchor="middle" x="1183.2554" y="-297.3" font-family="Times,serif" font-size="14.00" fill="#000000">clans&#45;clan</text>
</g>
<!-- accumulation&#45;&gt;clans&#45;clan -->
<g id="edge2" class="edge">
<title>accumulation&#45;&gt;clans&#45;clan</title>
<path fill="none" stroke="#000000" d="M813.6279,-275.5664C813.6279,-284.9587 813.6279,-294.5 813.6279,-294.5 813.6279,-294.5 1136.8025,-294.5 1136.8025,-294.5"/>
<polygon fill="#000000" stroke="#000000" points="1136.8025,-298.0001 1146.8025,-294.5 1136.8025,-291.0001 1136.8025,-298.0001"/>
</g>
<!-- player&#45;achievements -->
<g id="node5" class="node">
<title>player&#45;achievements</title>
<polygon fill="none" stroke="#000000" points="853.4863,-211.5 853.4863,-247.5 985.041,-247.5 985.041,-211.5 853.4863,-211.5"/>
<text text-anchor="middle" x="919.2637" y="-225.3" font-family="Times,serif" font-size="14.00" fill="#000000">player&#45;achievements</text>
</g>
<!-- accumulation&#45;&gt;player&#45;achievements -->
<g id="edge3" class="edge">
<title>accumulation&#45;&gt;player&#45;achievements</title>
<path fill="none" stroke="#000000" d="M817.6358,-243.5C817.6358,-243.5 843.4037,-243.5 843.4037,-243.5"/>
<polygon fill="#000000" stroke="#000000" points="843.4038,-247.0001 853.4037,-243.5 843.4037,-240.0001 843.4038,-247.0001"/>
</g>
<!-- player&#45;stats -->
<g id="node6" class="node">
<title>player&#45;stats</title>
<polygon fill="none" stroke="#000000" points="879.1348,-60.5 879.1348,-96.5 959.3926,-96.5 959.3926,-60.5 879.1348,-60.5"/>
<text text-anchor="middle" x="919.2637" y="-74.3" font-family="Times,serif" font-size="14.00" fill="#000000">player&#45;stats</text>
</g>
<!-- accumulation&#45;&gt;player&#45;stats -->
<g id="edge4" class="edge">
<title>accumulation&#45;&gt;player&#45;stats</title>
<path fill="none" stroke="#000000" d="M772.6279,-239.3225C772.6279,-196.6231 772.6279,-93.5 772.6279,-93.5 772.6279,-93.5 868.8066,-93.5 868.8066,-93.5"/>
<polygon fill="#000000" stroke="#000000" points="868.8067,-97.0001 878.8066,-93.5 868.8066,-90.0001 868.8067,-97.0001"/>
</g>
<!-- player&#45;user -->
<g id="node7" class="node">
<title>player&#45;user</title>
<polygon fill="none" stroke="#000000" points="1026.6157,-152.5 1026.6157,-188.5 1105.3081,-188.5 1105.3081,-152.5 1026.6157,-152.5"/>
<text text-anchor="middle" x="1065.9619" y="-166.3" font-family="Times,serif" font-size="14.00" fill="#000000">player&#45;user</text>
</g>
<!-- accumulation&#45;&gt;player&#45;user -->
<g id="edge5" class="edge">
<title>accumulation&#45;&gt;player&#45;user</title>
<path fill="none" stroke="#000000" d="M817.6904,-257.3333C897.5556,-257.3333 1053.6279,-257.3333 1053.6279,-257.3333 1053.6279,-257.3333 1053.6279,-198.9151 1053.6279,-198.9151"/>
<polygon fill="#000000" stroke="#000000" points="1057.128,-198.9151 1053.6279,-188.9151 1050.128,-198.9152 1057.128,-198.9151"/>
</g>
<!-- pure&#45;clanwar -->
<g id="node8" class="node">
<title>pure&#45;clanwar</title>
<polygon fill="none" stroke="#000000" points="1021.041,-310.5 1021.041,-346.5 1110.8828,-346.5 1110.8828,-310.5 1021.041,-310.5"/>
<text text-anchor="middle" x="1065.9619" y="-324.3" font-family="Times,serif" font-size="14.00" fill="#000000">pure&#45;clanwar</text>
</g>
<!-- accumulation&#45;&gt;pure&#45;clanwar -->
<g id="edge6" class="edge">
<title>accumulation&#45;&gt;pure&#45;clanwar</title>
<path fill="none" stroke="#000000" d="M817.5349,-266.6667C903.292,-266.6667 1079.6279,-266.6667 1079.6279,-266.6667 1079.6279,-266.6667 1079.6279,-300.2824 1079.6279,-300.2824"/>
<polygon fill="#000000" stroke="#000000" points="1076.128,-300.2824 1079.6279,-310.2824 1083.128,-300.2824 1076.128,-300.2824"/>
</g>
<!-- reference&#45;servers -->
<g id="node9" class="node">
<title>reference&#45;servers</title>
<polygon fill="none" stroke="#000000" points="863.0806,-167.5 863.0806,-203.5 975.4468,-203.5 975.4468,-167.5 863.0806,-167.5"/>
<text text-anchor="middle" x="919.2637" y="-181.3" font-family="Times,serif" font-size="14.00" fill="#000000">reference&#45;servers</text>
</g>
<!-- accumulation&#45;&gt;reference&#45;servers -->
<g id="edge7" class="edge">
<title>accumulation&#45;&gt;reference&#45;servers</title>
<path fill="none" stroke="#000000" d="M795.6279,-239.2047C795.6279,-222.5905 795.6279,-200.6667 795.6279,-200.6667 795.6279,-200.6667 852.8728,-200.6667 852.8728,-200.6667"/>
<polygon fill="#000000" stroke="#000000" points="852.8728,-204.1668 862.8728,-200.6667 852.8728,-197.1668 852.8728,-204.1668"/>
</g>
<!-- clan&#45;stats&#45;&gt;pure&#45;clanwar -->
<g id="edge16" class="edge">
<title>clan&#45;stats&#45;&gt;pure&#45;clanwar</title>
<path fill="none" stroke="#000000" d="M954.0291,-328.5C954.0291,-328.5 1010.8819,-328.5 1010.8819,-328.5"/>
<polygon fill="#000000" stroke="#000000" points="1010.8819,-332.0001 1020.8819,-328.5 1010.8819,-325.0001 1010.8819,-332.0001"/>
</g>
<!-- player&#45;achievements&#45;&gt;player&#45;user -->
<g id="edge32" class="edge">
<title>player&#45;achievements&#45;&gt;player&#45;user</title>
<path fill="none" stroke="#000000" d="M980.6279,-211.4878C980.6279,-196.6367 980.6279,-178 980.6279,-178 980.6279,-178 1016.2927,-178 1016.2927,-178"/>
<polygon fill="#000000" stroke="#000000" points="1016.2928,-181.5001 1026.2927,-178 1016.2927,-174.5001 1016.2928,-181.5001"/>
</g>
<!-- pure&#45;clanwar&#45;&gt;clans&#45;clan -->
<g id="edge18" class="edge">
<title>pure&#45;clanwar&#45;&gt;clans&#45;clan</title>
<path fill="none" stroke="#000000" d="M1110.9752,-315C1110.9752,-315 1136.5351,-315 1136.5351,-315"/>
<polygon fill="#000000" stroke="#000000" points="1136.5351,-318.5001 1146.5351,-315 1136.5351,-311.5001 1136.5351,-318.5001"/>
</g>
<!-- benchmark -->
<g id="node10" class="node">
<title>benchmark</title>
<polygon fill="none" stroke="#000000" points="0,-179.5 0,-215.5 78.1934,-215.5 78.1934,-179.5 0,-179.5"/>
<text text-anchor="middle" x="39.0967" y="-193.3" font-family="Times,serif" font-size="14.00" fill="#000000">benchmark</text>
</g>
<!-- web -->
<g id="node11" class="node">
<title>web</title>
<polygon fill="none" stroke="#000000" points="114.1934,-179.5 114.1934,-215.5 168.1934,-215.5 168.1934,-179.5 114.1934,-179.5"/>
<text text-anchor="middle" x="141.1934" y="-193.3" font-family="Times,serif" font-size="14.00" fill="#000000">web</text>
</g>
<!-- benchmark&#45;&gt;web -->
<g id="edge8" class="edge">
<title>benchmark&#45;&gt;web</title>
<path fill="none" stroke="#000000" d="M78.2779,-197.5C78.2779,-197.5 103.9842,-197.5 103.9842,-197.5"/>
<polygon fill="#000000" stroke="#000000" points="103.9842,-201.0001 113.9842,-197.5 103.9842,-194.0001 103.9842,-201.0001"/>
</g>
<!-- clans -->
<g id="node12" class="node">
<title>clans</title>
<polygon fill="none" stroke="#000000" points="215.5244,-314.5 215.5244,-350.5 269.5244,-350.5 269.5244,-314.5 215.5244,-314.5"/>
<text text-anchor="middle" x="242.5244" y="-328.3" font-family="Times,serif" font-size="14.00" fill="#000000">clans</text>
</g>
<!-- web&#45;&gt;clans -->
<g id="edge35" class="edge">
<title>web&#45;&gt;clans</title>
<path fill="none" stroke="#000000" d="M128.6279,-215.7067C128.6279,-252.5559 128.6279,-332.5 128.6279,-332.5 128.6279,-332.5 205.2434,-332.5 205.2434,-332.5"/>
<polygon fill="#000000" stroke="#000000" points="205.2434,-336.0001 215.2434,-332.5 205.2433,-329.0001 205.2434,-336.0001"/>
</g>
<!-- games -->
<g id="node15" class="node">
<title>games</title>
<polygon fill="none" stroke="#000000" points="342.4463,-269.5 342.4463,-305.5 396.4463,-305.5 396.4463,-269.5 342.4463,-269.5"/>
<text text-anchor="middle" x="369.4463" y="-283.3" font-family="Times,serif" font-size="14.00" fill="#000000">games</text>
</g>
<!-- web&#45;&gt;games -->
<g id="edge37" class="edge">
<title>web&#45;&gt;games</title>
<path fill="none" stroke="#000000" d="M141.6279,-215.7128C141.6279,-242.0111 141.6279,-287.5 141.6279,-287.5 141.6279,-287.5 332.4179,-287.5 332.4179,-287.5"/>
<polygon fill="#000000" stroke="#000000" points="332.4179,-291.0001 342.4179,-287.5 332.4179,-284.0001 332.4179,-291.0001"/>
</g>
<!-- web&#45;template -->
<g id="node17" class="node">
<title>web&#45;template</title>
<polygon fill="none" stroke="#000000" points="458.0371,-239.5 458.0371,-275.5 550.2236,-275.5 550.2236,-239.5 458.0371,-239.5"/>
<text text-anchor="middle" x="504.1304" y="-253.3" font-family="Times,serif" font-size="14.00" fill="#000000">web&#45;template</text>
</g>
<!-- web&#45;&gt;web&#45;template -->
<g id="edge43" class="edge">
<title>web&#45;&gt;web&#45;template</title>
<path fill="none" stroke="#000000" d="M155.6279,-215.5807C155.6279,-232 155.6279,-253.6667 155.6279,-253.6667 155.6279,-253.6667 447.8519,-253.6667 447.8519,-253.6667"/>
<polygon fill="#000000" stroke="#000000" points="447.852,-257.1668 457.8519,-253.6667 447.8519,-250.1668 447.852,-257.1668"/>
</g>
<!-- downloads -->
<g id="node18" class="node">
<title>downloads</title>
<polygon fill="none" stroke="#000000" points="204.1934,-209.5 204.1934,-245.5 280.8555,-245.5 280.8555,-209.5 204.1934,-209.5"/>
<text text-anchor="middle" x="242.5244" y="-223.3" font-family="Times,serif" font-size="14.00" fill="#000000">downloads</text>
</g>
<!-- web&#45;&gt;downloads -->
<g id="edge36" class="edge">
<title>web&#45;&gt;downloads</title>
<path fill="none" stroke="#000000" d="M168.3482,-212.5C168.3482,-212.5 193.8654,-212.5 193.8654,-212.5"/>
<polygon fill="#000000" stroke="#000000" points="193.8654,-216.0001 203.8654,-212.5 193.8654,-209.0001 193.8654,-216.0001"/>
</g>
<!-- inters -->
<g id="node19" class="node">
<title>inters</title>
<polygon fill="none" stroke="#000000" points="215.5244,-149.5 215.5244,-185.5 269.5244,-185.5 269.5244,-149.5 215.5244,-149.5"/>
<text text-anchor="middle" x="242.5244" y="-163.3" font-family="Times,serif" font-size="14.00" fill="#000000">inters</text>
</g>
<!-- web&#45;&gt;inters -->
<g id="edge38" class="edge">
<title>web&#45;&gt;inters</title>
<path fill="none" stroke="#000000" d="M168.3482,-183.6667C168.3482,-183.6667 205.2946,-183.6667 205.2946,-183.6667"/>
<polygon fill="#000000" stroke="#000000" points="205.2946,-187.1668 215.2946,-183.6667 205.2946,-180.1668 205.2946,-187.1668"/>
</g>
<!-- ladder -->
<g id="node21" class="node">
<title>ladder</title>
<polygon fill="none" stroke="#000000" points="342.4463,-90.5 342.4463,-126.5 396.4463,-126.5 396.4463,-90.5 342.4463,-90.5"/>
<text text-anchor="middle" x="369.4463" y="-104.3" font-family="Times,serif" font-size="14.00" fill="#000000">ladder</text>
</g>
<!-- web&#45;&gt;ladder -->
<g id="edge39" class="edge">
<title>web&#45;&gt;ladder</title>
<path fill="none" stroke="#000000" d="M150.6279,-179.3676C150.6279,-154.2699 150.6279,-112 150.6279,-112 150.6279,-112 332.1752,-112 332.1752,-112"/>
<polygon fill="#000000" stroke="#000000" points="332.1753,-115.5001 342.1752,-112 332.1752,-108.5001 332.1753,-115.5001"/>
</g>
<!-- logServer -->
<g id="node23" class="node">
<title>logServer</title>
<polygon fill="none" stroke="#000000" points="207.3105,-8.5 207.3105,-44.5 277.7383,-44.5 277.7383,-8.5 207.3105,-8.5"/>
<text text-anchor="middle" x="242.5244" y="-22.3" font-family="Times,serif" font-size="14.00" fill="#000000">logServer</text>
</g>
<!-- web&#45;&gt;logServer -->
<g id="edge40" class="edge">
<title>web&#45;&gt;logServer</title>
<path fill="none" stroke="#000000" d="M168.2238,-181.3333C188.0867,-181.3333 211.6279,-181.3333 211.6279,-181.3333 211.6279,-181.3333 211.6279,-54.5644 211.6279,-54.5644"/>
<polygon fill="#000000" stroke="#000000" points="215.128,-54.5643 211.6279,-44.5644 208.128,-54.5644 215.128,-54.5643"/>
</g>
<!-- players -->
<g id="node25" class="node">
<title>players</title>
<polygon fill="none" stroke="#000000" points="214.3105,-60.5 214.3105,-96.5 270.7383,-96.5 270.7383,-60.5 214.3105,-60.5"/>
<text text-anchor="middle" x="242.5244" y="-74.3" font-family="Times,serif" font-size="14.00" fill="#000000">players</text>
</g>
<!-- web&#45;&gt;players -->
<g id="edge41" class="edge">
<title>web&#45;&gt;players</title>
<path fill="none" stroke="#000000" d="M132.6279,-179.4265C132.6279,-146.1366 132.6279,-78.5 132.6279,-78.5 132.6279,-78.5 204.2233,-78.5 204.2233,-78.5"/>
<polygon fill="#000000" stroke="#000000" points="204.2234,-82.0001 214.2233,-78.5 204.2233,-75.0001 204.2234,-82.0001"/>
</g>
<!-- servers -->
<g id="node26" class="node">
<title>servers</title>
<polygon fill="none" stroke="#000000" points="341.6221,-194.5 341.6221,-230.5 397.2705,-230.5 397.2705,-194.5 341.6221,-194.5"/>
<text text-anchor="middle" x="369.4463" y="-208.3" font-family="Times,serif" font-size="14.00" fill="#000000">servers</text>
</g>
<!-- web&#45;&gt;servers -->
<g id="edge42" class="edge">
<title>web&#45;&gt;servers</title>
<path fill="none" stroke="#000000" d="M168.2733,-201.5C168.2733,-201.5 331.3311,-201.5 331.3311,-201.5"/>
<polygon fill="#000000" stroke="#000000" points="331.3311,-205.0001 341.3311,-201.5 331.3311,-198.0001 331.3311,-205.0001"/>
</g>
<!-- clans&#45;&gt;clan&#45;stats -->
<g id="edge9" class="edge">
<title>clans&#45;&gt;clan&#45;stats</title>
<path fill="none" stroke="#000000" d="M269.8916,-338C269.8916,-338 874.4806,-338 874.4806,-338"/>
<polygon fill="#000000" stroke="#000000" points="874.4807,-341.5001 884.4806,-338 874.4806,-334.5001 874.4807,-341.5001"/>
</g>
<!-- clans&#45;challonge -->
<g id="node13" class="node">
<title>clans&#45;challonge</title>
<polygon fill="none" stroke="#000000" points="586.2236,-374.5 586.2236,-410.5 690.0723,-410.5 690.0723,-374.5 586.2236,-374.5"/>
<text text-anchor="middle" x="638.1479" y="-388.3" font-family="Times,serif" font-size="14.00" fill="#000000">clans&#45;challonge</text>
</g>
<!-- clans&#45;&gt;clans&#45;challonge -->
<g id="edge10" class="edge">
<title>clans&#45;&gt;clans&#45;challonge</title>
<path fill="none" stroke="#000000" d="M269.5499,-348.6667C351.3383,-348.6667 590.6279,-348.6667 590.6279,-348.6667 590.6279,-348.6667 590.6279,-364.4182 590.6279,-364.4182"/>
<polygon fill="#000000" stroke="#000000" points="587.128,-364.4182 590.6279,-374.4182 594.128,-364.4183 587.128,-364.4182"/>
</g>
<!-- clanwars -->
<g id="node14" class="node">
<title>clanwars</title>
<polygon fill="none" stroke="#000000" points="738.9033,-344.5 738.9033,-380.5 804.6553,-380.5 804.6553,-344.5 738.9033,-344.5"/>
<text text-anchor="middle" x="771.7793" y="-358.3" font-family="Times,serif" font-size="14.00" fill="#000000">clanwars</text>
</g>
<!-- clans&#45;&gt;clanwars -->
<g id="edge11" class="edge">
<title>clans&#45;&gt;clanwars</title>
<path fill="none" stroke="#000000" d="M269.865,-346.3333C269.865,-346.3333 728.6411,-346.3333 728.6411,-346.3333"/>
<polygon fill="#000000" stroke="#000000" points="728.6412,-349.8334 738.6411,-346.3333 728.6411,-342.8334 728.6412,-349.8334"/>
</g>
<!-- clans&#45;&gt;games -->
<g id="edge12" class="edge">
<title>clans&#45;&gt;games</title>
<path fill="none" stroke="#000000" d="M269.7913,-326C307.1385,-326 369.6279,-326 369.6279,-326 369.6279,-326 369.6279,-315.8479 369.6279,-315.8479"/>
<polygon fill="#000000" stroke="#000000" points="373.128,-315.8479 369.6279,-305.8479 366.128,-315.848 373.128,-315.8479"/>
</g>
<!-- json&#45;formats -->
<g id="node16" class="node">
<title>json&#45;formats</title>
<polygon fill="none" stroke="#000000" points="594.7651,-239.5 594.7651,-275.5 681.5308,-275.5 681.5308,-239.5 594.7651,-239.5"/>
<text text-anchor="middle" x="638.1479" y="-253.3" font-family="Times,serif" font-size="14.00" fill="#000000">json&#45;formats</text>
</g>
<!-- clans&#45;&gt;json&#45;formats -->
<g id="edge13" class="edge">
<title>clans&#45;&gt;json&#45;formats</title>
<path fill="none" stroke="#000000" d="M269.7502,-332C359.2413,-332 638.6279,-332 638.6279,-332 638.6279,-332 638.6279,-285.5344 638.6279,-285.5344"/>
<polygon fill="#000000" stroke="#000000" points="642.128,-285.5343 638.6279,-275.5344 635.128,-285.5344 642.128,-285.5343"/>
</g>
<!-- clans&#45;&gt;web&#45;template -->
<g id="edge14" class="edge">
<title>clans&#45;&gt;web&#45;template</title>
<path fill="none" stroke="#000000" d="M242.6279,-314.1728C242.6279,-293.0866 242.6279,-261.3333 242.6279,-261.3333 242.6279,-261.3333 447.9809,-261.3333 447.9809,-261.3333"/>
<polygon fill="#000000" stroke="#000000" points="447.981,-264.8334 457.9809,-261.3333 447.9809,-257.8334 447.981,-264.8334"/>
</g>
<!-- clans&#45;challonge&#45;&gt;pure&#45;clanwar -->
<g id="edge15" class="edge">
<title>clans&#45;challonge&#45;&gt;pure&#45;clanwar</title>
<path fill="none" stroke="#000000" d="M690.3248,-396C807.5552,-396 1081.6279,-396 1081.6279,-396 1081.6279,-396 1081.6279,-356.5888 1081.6279,-356.5888"/>
<polygon fill="#000000" stroke="#000000" points="1085.128,-356.5887 1081.6279,-346.5888 1078.128,-356.5888 1085.128,-356.5887"/>
</g>
<!-- clanwars&#45;&gt;pure&#45;clanwar -->
<g id="edge17" class="edge">
<title>clanwars&#45;&gt;pure&#45;clanwar</title>
<path fill="none" stroke="#000000" d="M804.7044,-364C878.6801,-364 1051.6279,-364 1051.6279,-364 1051.6279,-364 1051.6279,-356.666 1051.6279,-356.666"/>
<polygon fill="#000000" stroke="#000000" points="1055.128,-356.6659 1051.6279,-346.666 1048.128,-356.666 1055.128,-356.6659"/>
</g>
<!-- games&#45;&gt;accumulation -->
<g id="edge20" class="edge">
<title>games&#45;&gt;accumulation</title>
<path fill="none" stroke="#000000" d="M396.4472,-279.5C480.6155,-279.5 732.6279,-279.5 732.6279,-279.5 732.6279,-279.5 732.6279,-279.1168 732.6279,-279.1168"/>
<polygon fill="#000000" stroke="#000000" points="736.1282,-285.6678 732.6279,-275.6679 729.1282,-285.668 736.1282,-285.6678"/>
</g>
<!-- games&#45;&gt;web&#45;template -->
<g id="edge21" class="edge">
<title>games&#45;&gt;web&#45;template</title>
<path fill="none" stroke="#000000" d="M396.7016,-272.5C396.7016,-272.5 447.8151,-272.5 447.8151,-272.5"/>
<polygon fill="#000000" stroke="#000000" points="447.8151,-276.0001 457.8151,-272.5 447.8151,-269.0001 447.8151,-276.0001"/>
</g>
<!-- json&#45;formats&#45;&gt;accumulation -->
<g id="edge44" class="edge">
<title>json&#45;formats&#45;&gt;accumulation</title>
<path fill="none" stroke="#000000" d="M681.5342,-257.5C681.5342,-257.5 715.8509,-257.5 715.8509,-257.5"/>
<polygon fill="#000000" stroke="#000000" points="715.8509,-261.0001 725.8509,-257.5 715.8508,-254.0001 715.8509,-261.0001"/>
</g>
<!-- web&#45;template&#45;&gt;json&#45;formats -->
<g id="edge45" class="edge">
<title>web&#45;template&#45;&gt;json&#45;formats</title>
<path fill="none" stroke="#000000" d="M550.2516,-257.5C550.2516,-257.5 584.6507,-257.5 584.6507,-257.5"/>
<polygon fill="#000000" stroke="#000000" points="584.6508,-261.0001 594.6507,-257.5 584.6507,-254.0001 584.6508,-261.0001"/>
</g>
<!-- downloads&#45;&gt;web&#45;template -->
<g id="edge19" class="edge">
<title>downloads&#45;&gt;web&#45;template</title>
<path fill="none" stroke="#000000" d="M281.1253,-244.25C281.1253,-244.25 447.8641,-244.25 447.8641,-244.25"/>
<polygon fill="#000000" stroke="#000000" points="447.8641,-247.7501 457.8641,-244.25 447.864,-240.7501 447.8641,-247.7501"/>
</g>
<!-- inters&#45;&gt;accumulation -->
<g id="edge22" class="edge">
<title>inters&#45;&gt;accumulation</title>
<path fill="none" stroke="#000000" d="M269.7885,-178.5C375.1191,-178.5 749.6279,-178.5 749.6279,-178.5 749.6279,-178.5 749.6279,-229.1772 749.6279,-229.1772"/>
<polygon fill="#000000" stroke="#000000" points="746.128,-229.1772 749.6279,-239.1772 753.128,-229.1773 746.128,-229.1772"/>
</g>
<!-- inter&#45;parser -->
<g id="node20" class="node">
<title>inter&#45;parser</title>
<polygon fill="none" stroke="#000000" points="329.3242,-134.5 329.3242,-170.5 409.5684,-170.5 409.5684,-134.5 329.3242,-134.5"/>
<text text-anchor="middle" x="369.4463" y="-148.3" font-family="Times,serif" font-size="14.00" fill="#000000">inter&#45;parser</text>
</g>
<!-- inters&#45;&gt;inter&#45;parser -->
<g id="edge23" class="edge">
<title>inters&#45;&gt;inter&#45;parser</title>
<path fill="none" stroke="#000000" d="M269.7523,-160C269.7523,-160 319.2452,-160 319.2452,-160"/>
<polygon fill="#000000" stroke="#000000" points="319.2452,-163.5001 329.2452,-160 319.2452,-156.5001 319.2452,-163.5001"/>
</g>
<!-- ladder&#45;&gt;player&#45;user -->
<g id="edge25" class="edge">
<title>ladder&#45;&gt;player&#45;user</title>
<path fill="none" stroke="#000000" d="M396.7766,-104.5C525.6755,-104.5 1066.6279,-104.5 1066.6279,-104.5 1066.6279,-104.5 1066.6279,-142.4652 1066.6279,-142.4652"/>
<polygon fill="#000000" stroke="#000000" points="1063.128,-142.4652 1066.6279,-152.4652 1070.128,-142.4652 1063.128,-142.4652"/>
</g>
<!-- ladder&#45;&gt;web&#45;template -->
<g id="edge26" class="edge">
<title>ladder&#45;&gt;web&#45;template</title>
<path fill="none" stroke="#000000" d="M396.6187,-119.5C407.1068,-119.5 416.6279,-119.5 416.6279,-119.5 416.6279,-119.5 416.6279,-240.75 416.6279,-240.75 416.6279,-240.75 447.8169,-240.75 447.8169,-240.75"/>
<polygon fill="#000000" stroke="#000000" points="447.8169,-244.2501 457.8169,-240.75 447.8169,-237.2501 447.8169,-244.2501"/>
</g>
<!-- ladder&#45;parser -->
<g id="node22" class="node">
<title>ladder&#45;parser</title>
<polygon fill="none" stroke="#000000" points="459.3462,-134.5 459.3462,-170.5 548.9146,-170.5 548.9146,-134.5 459.3462,-134.5"/>
<text text-anchor="middle" x="504.1304" y="-148.3" font-family="Times,serif" font-size="14.00" fill="#000000">ladder&#45;parser</text>
</g>
<!-- ladder&#45;&gt;ladder&#45;parser -->
<g id="edge24" class="edge">
<title>ladder&#45;&gt;ladder&#45;parser</title>
<path fill="none" stroke="#000000" d="M396.4774,-112C435.9269,-112 504.6279,-112 504.6279,-112 504.6279,-112 504.6279,-124.146 504.6279,-124.146"/>
<polygon fill="#000000" stroke="#000000" points="501.128,-124.1459 504.6279,-134.146 508.128,-124.146 501.128,-124.1459"/>
</g>
<!-- fileOffsetFinder -->
<g id="node24" class="node">
<title>fileOffsetFinder</title>
<polygon fill="none" stroke="#000000" points="316.8555,-.5 316.8555,-36.5 422.0371,-36.5 422.0371,-.5 316.8555,-.5"/>
<text text-anchor="middle" x="369.4463" y="-14.3" font-family="Times,serif" font-size="14.00" fill="#000000">fileOffsetFinder</text>
</g>
<!-- logServer&#45;&gt;fileOffsetFinder -->
<g id="edge27" class="edge">
<title>logServer&#45;&gt;fileOffsetFinder</title>
<path fill="none" stroke="#000000" d="M277.8792,-22.5C277.8792,-22.5 306.7169,-22.5 306.7169,-22.5"/>
<polygon fill="#000000" stroke="#000000" points="306.7169,-26.0001 316.7169,-22.5 306.7169,-19.0001 306.7169,-26.0001"/>
</g>
<!-- players&#45;&gt;player&#45;stats -->
<g id="edge30" class="edge">
<title>players&#45;&gt;player&#45;stats</title>
<path fill="none" stroke="#000000" d="M270.7415,-67.5C270.7415,-67.5 869.101,-67.5 869.101,-67.5"/>
<polygon fill="#000000" stroke="#000000" points="869.101,-71.0001 879.101,-67.5 869.101,-64.0001 869.101,-71.0001"/>
</g>
<!-- players&#45;&gt;player&#45;user -->
<g id="edge31" class="edge">
<title>players&#45;&gt;player&#45;user</title>
<path fill="none" stroke="#000000" d="M270.8935,-82.5C350.2325,-82.5 568.6279,-82.5 568.6279,-82.5 568.6279,-82.5 568.6279,-159.5 568.6279,-159.5 568.6279,-159.5 1016.5212,-159.5 1016.5212,-159.5"/>
<polygon fill="#000000" stroke="#000000" points="1016.5213,-163.0001 1026.5212,-159.5 1016.5212,-156.0001 1016.5213,-163.0001"/>
</g>
<!-- players&#45;&gt;json&#45;formats -->
<g id="edge28" class="edge">
<title>players&#45;&gt;json&#45;formats</title>
<path fill="none" stroke="#000000" d="M271.0112,-75C361.8342,-75 638.6279,-75 638.6279,-75 638.6279,-75 638.6279,-229.334 638.6279,-229.334"/>
<polygon fill="#000000" stroke="#000000" points="635.128,-229.334 638.6279,-239.334 642.128,-229.334 635.128,-229.334"/>
</g>
<!-- players&#45;&gt;ladder -->
<g id="edge29" class="edge">
<title>players&#45;&gt;ladder</title>
<path fill="none" stroke="#000000" d="M271.0082,-93.5C271.0082,-93.5 332.3619,-93.5 332.3619,-93.5"/>
<polygon fill="#000000" stroke="#000000" points="332.3619,-97.0001 342.3619,-93.5 332.3619,-90.0001 332.3619,-97.0001"/>
</g>
<!-- servers&#45;&gt;reference&#45;servers -->
<g id="edge33" class="edge">
<title>servers&#45;&gt;reference&#45;servers</title>
<path fill="none" stroke="#000000" d="M397.4677,-197.3333C397.4677,-197.3333 853.0734,-197.3333 853.0734,-197.3333"/>
<polygon fill="#000000" stroke="#000000" points="853.0734,-200.8334 863.0734,-197.3333 853.0734,-193.8334 853.0734,-200.8334"/>
</g>
<!-- servers&#45;&gt;web&#45;template -->
<g id="edge34" class="edge">
<title>servers&#45;&gt;web&#45;template</title>
<path fill="none" stroke="#000000" d="M369.6279,-230.6432C369.6279,-236.9611 369.6279,-242.5 369.6279,-242.5 369.6279,-242.5 447.8423,-242.5 447.8423,-242.5"/>
<polygon fill="#000000" stroke="#000000" points="447.8423,-246.0001 457.8423,-242.5 447.8422,-239.0001 447.8423,-246.0001"/>
</g>
</g>
</svg>
