<?xml version="1.0" encoding="UTF-8"?><!-- Generated by graphviz version 2.40.1 (20161225.0304)
 --><!-- Title: %3 Pages: 1 --><svg xmlns="http://www.w3.org/2000/svg" xmlns:xlink="http://www.w3.org/1999/xlink" width="1228pt" height="604pt" viewBox="0.00 0.00 1227.63 604.00" preserveAspectRatio="xMidYMid meet" zoomAndPan="magnify" version="1.1" contentScriptType="text/ecmascript" contentStyleType="text/css"><svg:style xmlns:svg="http://www.w3.org/2000/svg" type="text/css">
a {
   text-decoration: underline;
   color:blue;
}
</svg:style><g id="graph0" class="graph" transform="scale(1 1) rotate(0) translate(4 600)"><title>%3</title><polygon fill="#ffffff" stroke="transparent" points="-4,4 -4,-600 1223.6279,-600 1223.6279,4 -4,4"/><!-- actionfps --><g id="node1" class="node"><title>actionfps</title><g id="a_node1"><a xlink:href="https://github.com/ScalaWilliam/ActionFPS/tree/master/" xlink:title="actionfps" xlink:type="simple" xlink:show="replace" xlink:actuate="onRequest">
<polygon fill="none" stroke="#000000" points="5.438,-213.5 5.438,-249.5 72.7554,-249.5 72.7554,-213.5 5.438,-213.5"/>
<text text-anchor="middle" x="39.0967" y="-227.3" font-family="Times,serif" font-size="14.00" fill="#000000">actionfps</text>
</a></g></g><!-- accumulation --><g id="node2" class="node"><title>accumulation</title><g id="a_node2"><a xlink:href="https://github.com/ScalaWilliam/ActionFPS/tree/master//accumulation" xlink:title="accumulation" xlink:type="simple" xlink:show="replace" xlink:actuate="onRequest">
<polygon fill="none" stroke="#000000" points="726.0723,-346.5 726.0723,-382.5 817.4863,-382.5 817.4863,-346.5 726.0723,-346.5"/>
<text text-anchor="middle" x="771.7793" y="-360.3" font-family="Times,serif" font-size="14.00" fill="#000000">accumulation</text>
</a></g></g><!-- clan&#45;stats --><g id="node3" class="node"><title>clan-stats</title><g id="a_node3"><a xlink:href="https://github.com/ScalaWilliam/ActionFPS/tree/master//clans/clan-stats" xlink:title="clan-stats" xlink:type="simple" xlink:show="replace" xlink:actuate="onRequest">
<polygon fill="none" stroke="#000000" points="884.8291,-472.5 884.8291,-508.5 953.6982,-508.5 953.6982,-472.5 884.8291,-472.5"/>
<text text-anchor="middle" x="919.2637" y="-486.3" font-family="Times,serif" font-size="14.00" fill="#000000">clan-stats</text>
</a></g></g><!-- accumulation&#45;&gt;clan&#45;stats --><g id="edge1" class="edge"><title>accumulation-&gt;clan-stats</title><path fill="none" stroke="#000000" d="M809.6279,-382.5108C809.6279,-414.1989 809.6279,-476.6 809.6279,-476.6 809.6279,-476.6 874.5742,-476.6 874.5742,-476.6"/><polygon fill="#000000" stroke="#000000" points="874.5743,-480.1001 884.5742,-476.6 874.5742,-473.1001 874.5743,-480.1001"/></g><!-- clans&#45;clan --><g id="node4" class="node"><title>clans-clan</title><g id="a_node4"><a xlink:href="https://github.com/ScalaWilliam/ActionFPS/tree/master//clans/clan" xlink:title="clans-clan" xlink:type="simple" xlink:show="replace" xlink:actuate="onRequest">
<polygon fill="none" stroke="#000000" points="1146.8828,-425.5 1146.8828,-461.5 1219.6279,-461.5 1219.6279,-425.5 1146.8828,-425.5"/>
<text text-anchor="middle" x="1183.2554" y="-439.3" font-family="Times,serif" font-size="14.00" fill="#000000">clans-clan</text>
</a></g></g><!-- accumulation&#45;&gt;clans&#45;clan --><g id="edge2" class="edge"><title>accumulation-&gt;clans-clan</title><path fill="none" stroke="#000000" d="M813.6279,-382.7479C813.6279,-405.5179 813.6279,-441.5 813.6279,-441.5 813.6279,-441.5 1136.8025,-441.5 1136.8025,-441.5"/><polygon fill="#000000" stroke="#000000" points="1136.8025,-445.0001 1146.8025,-441.5 1136.8025,-438.0001 1136.8025,-445.0001"/></g><!-- player&#45;achievements --><g id="node5" class="node"><title>player-achievements</title><g id="a_node5"><a xlink:href="https://github.com/ScalaWilliam/ActionFPS/tree/master//players/player-achievements" xlink:title="player-achievements" xlink:type="simple" xlink:show="replace" xlink:actuate="onRequest">
<polygon fill="none" stroke="#000000" points="853.4863,-307.5 853.4863,-343.5 985.041,-343.5 985.041,-307.5 853.4863,-307.5"/>
<text text-anchor="middle" x="919.2637" y="-321.3" font-family="Times,serif" font-size="14.00" fill="#000000">player-achievements</text>
</a></g></g><!-- accumulation&#45;&gt;player&#45;achievements --><g id="edge3" class="edge"><title>accumulation-&gt;player-achievements</title><path fill="none" stroke="#000000" d="M817.5522,-358.3333C843.0184,-358.3333 869.6279,-358.3333 869.6279,-358.3333 869.6279,-358.3333 869.6279,-353.8366 869.6279,-353.8366"/><polygon fill="#000000" stroke="#000000" points="873.128,-353.8365 869.6279,-343.8366 866.128,-353.8366 873.128,-353.8365"/></g><!-- player&#45;stats --><g id="node6" class="node"><title>player-stats</title><g id="a_node6"><a xlink:href="https://github.com/ScalaWilliam/ActionFPS/tree/master//players/player-stats" xlink:title="player-stats" xlink:type="simple" xlink:show="replace" xlink:actuate="onRequest">
<polygon fill="none" stroke="#000000" points="879.1348,-82.5 879.1348,-118.5 959.3926,-118.5 959.3926,-82.5 879.1348,-82.5"/>
<text text-anchor="middle" x="919.2637" y="-96.3" font-family="Times,serif" font-size="14.00" fill="#000000">player-stats</text>
</a></g></g><!-- accumulation&#45;&gt;player&#45;stats --><g id="edge4" class="edge"><title>accumulation-&gt;player-stats</title><path fill="none" stroke="#000000" d="M763.6279,-346.4127C763.6279,-288.7461 763.6279,-113 763.6279,-113 763.6279,-113 868.7785,-113 868.7785,-113"/><polygon fill="#000000" stroke="#000000" points="868.7785,-116.5001 878.7785,-113 868.7785,-109.5001 868.7785,-116.5001"/></g><!-- player&#45;user --><g id="node7" class="node"><title>player-user</title><g id="a_node7"><a xlink:href="https://github.com/ScalaWilliam/ActionFPS/tree/master//players/player-user" xlink:title="player-user" xlink:type="simple" xlink:show="replace" xlink:actuate="onRequest">
<polygon fill="none" stroke="#000000" points="1026.6157,-216.5 1026.6157,-252.5 1105.3081,-252.5 1105.3081,-216.5 1026.6157,-216.5"/>
<text text-anchor="middle" x="1065.9619" y="-230.3" font-family="Times,serif" font-size="14.00" fill="#000000">player-user</text>
</a></g></g><!-- accumulation&#45;&gt;player&#45;user --><g id="edge5" class="edge"><title>accumulation-&gt;player-user</title><path fill="none" stroke="#000000" d="M781.6279,-346.3509C781.6279,-312.1364 781.6279,-241.5 781.6279,-241.5 781.6279,-241.5 1016.4265,-241.5 1016.4265,-241.5"/><polygon fill="#000000" stroke="#000000" points="1016.4265,-245.0001 1026.4265,-241.5 1016.4265,-238.0001 1016.4265,-245.0001"/></g><!-- pure&#45;clanwar --><g id="node8" class="node"><title>pure-clanwar</title><g id="a_node8"><a xlink:href="https://github.com/ScalaWilliam/ActionFPS/tree/master//clans/clanwars/pure-clanwar" xlink:title="pure-clanwar" xlink:type="simple" xlink:show="replace" xlink:actuate="onRequest">
<polygon fill="none" stroke="#000000" points="1021.041,-472.5 1021.041,-508.5 1110.8828,-508.5 1110.8828,-472.5 1021.041,-472.5"/>
<text text-anchor="middle" x="1065.9619" y="-486.3" font-family="Times,serif" font-size="14.00" fill="#000000">pure-clanwar</text>
</a></g></g><!-- accumulation&#45;&gt;pure&#45;clanwar --><g id="edge6" class="edge"><title>accumulation-&gt;pure-clanwar</title><path fill="none" stroke="#000000" d="M817.5259,-370.6667C900.3434,-370.6667 1066.6279,-370.6667 1066.6279,-370.6667 1066.6279,-370.6667 1066.6279,-462.2999 1066.6279,-462.2999"/><polygon fill="#000000" stroke="#000000" points="1063.128,-462.2999 1066.6279,-472.2999 1070.128,-462.2999 1063.128,-462.2999"/></g><!-- reference&#45;servers --><g id="node9" class="node"><title>reference-servers</title><g id="a_node9"><a xlink:href="https://github.com/ScalaWilliam/ActionFPS/tree/master//servers/reference-servers" xlink:title="reference-servers" xlink:type="simple" xlink:show="replace" xlink:actuate="onRequest">
<polygon fill="none" stroke="#000000" points="863.0806,-256.5 863.0806,-292.5 975.4468,-292.5 975.4468,-256.5 863.0806,-256.5"/>
<text text-anchor="middle" x="919.2637" y="-270.3" font-family="Times,serif" font-size="14.00" fill="#000000">reference-servers</text>
</a></g></g><!-- accumulation&#45;&gt;reference&#45;servers --><g id="edge7" class="edge"><title>accumulation-&gt;reference-servers</title><path fill="none" stroke="#000000" d="M799.6279,-346.1336C799.6279,-323.2158 799.6279,-287 799.6279,-287 799.6279,-287 852.949,-287 852.949,-287"/><polygon fill="#000000" stroke="#000000" points="852.949,-290.5001 862.949,-287 852.9489,-283.5001 852.949,-290.5001"/></g><!-- clan&#45;stats&#45;&gt;pure&#45;clanwar --><g id="edge16" class="edge"><title>clan-stats-&gt;pure-clanwar</title><path fill="none" stroke="#000000" d="M954.0291,-490.5C954.0291,-490.5 1010.8819,-490.5 1010.8819,-490.5"/><polygon fill="#000000" stroke="#000000" points="1010.8819,-494.0001 1020.8819,-490.5 1010.8819,-487.0001 1010.8819,-494.0001"/></g><!-- player&#45;achievements&#45;&gt;player&#45;user --><g id="edge32" class="edge"><title>player-achievements-&gt;player-user</title><path fill="none" stroke="#000000" d="M980.6279,-307.3512C980.6279,-284.2354 980.6279,-247.25 980.6279,-247.25 980.6279,-247.25 1016.2927,-247.25 1016.2927,-247.25"/><polygon fill="#000000" stroke="#000000" points="1016.2928,-250.7501 1026.2927,-247.25 1016.2927,-243.7501 1016.2928,-250.7501"/></g><!-- pure&#45;clanwar&#45;&gt;clans&#45;clan --><g id="edge18" class="edge"><title>pure-clanwar-&gt;clans-clan</title><path fill="none" stroke="#000000" d="M1111.1182,-490.5C1144.3006,-490.5 1183.6279,-490.5 1183.6279,-490.5 1183.6279,-490.5 1183.6279,-471.537 1183.6279,-471.537"/><polygon fill="#000000" stroke="#000000" points="1187.128,-471.537 1183.6279,-461.537 1180.128,-471.537 1187.128,-471.537"/></g><!-- benchmark --><g id="node10" class="node"><title>benchmark</title><g id="a_node10"><a xlink:href="https://github.com/ScalaWilliam/ActionFPS/tree/master//benchmark" xlink:title="benchmark" xlink:type="simple" xlink:show="replace" xlink:actuate="onRequest">
<polygon fill="none" stroke="#000000" points="0,-264.5 0,-300.5 78.1934,-300.5 78.1934,-264.5 0,-264.5"/>
<text text-anchor="middle" x="39.0967" y="-278.3" font-family="Times,serif" font-size="14.00" fill="#000000">benchmark</text>
</a></g></g><!-- web --><g id="node11" class="node"><title>web</title><g id="a_node11"><a xlink:href="https://github.com/ScalaWilliam/ActionFPS/tree/master//web" xlink:title="web" xlink:type="simple" xlink:show="replace" xlink:actuate="onRequest">
<polygon fill="none" stroke="#000000" points="114.1934,-264.5 114.1934,-300.5 168.1934,-300.5 168.1934,-264.5 114.1934,-264.5"/>
<text text-anchor="middle" x="141.1934" y="-278.3" font-family="Times,serif" font-size="14.00" fill="#000000">web</text>
</a></g></g><!-- benchmark&#45;&gt;web --><g id="edge8" class="edge"><title>benchmark-&gt;web</title><path fill="none" stroke="#000000" d="M78.2779,-282.5C78.2779,-282.5 103.9842,-282.5 103.9842,-282.5"/><polygon fill="#000000" stroke="#000000" points="103.9842,-286.0001 113.9842,-282.5 103.9842,-279.0001 103.9842,-286.0001"/></g><!-- clans --><g id="node12" class="node"><title>clans</title><g id="a_node12"><a xlink:href="https://github.com/ScalaWilliam/ActionFPS/tree/master//clans" xlink:title="clans" xlink:type="simple" xlink:show="replace" xlink:actuate="onRequest">
<polygon fill="none" stroke="#000000" points="215.5244,-458.5 215.5244,-494.5 269.5244,-494.5 269.5244,-458.5 215.5244,-458.5"/>
<text text-anchor="middle" x="242.5244" y="-472.3" font-family="Times,serif" font-size="14.00" fill="#000000">clans</text>
</a></g></g><!-- web&#45;&gt;clans --><g id="edge35" class="edge"><title>web-&gt;clans</title><path fill="none" stroke="#000000" d="M128.6279,-300.751C128.6279,-349.0447 128.6279,-476.5 128.6279,-476.5 128.6279,-476.5 205.2434,-476.5 205.2434,-476.5"/><polygon fill="#000000" stroke="#000000" points="205.2434,-480.0001 215.2434,-476.5 205.2433,-473.0001 205.2434,-480.0001"/></g><!-- games --><g id="node15" class="node"><title>games</title><g id="a_node15"><a xlink:href="https://github.com/ScalaWilliam/ActionFPS/tree/master//games" xlink:title="games" xlink:type="simple" xlink:show="replace" xlink:actuate="onRequest">
<polygon fill="none" stroke="#000000" points="342.4463,-387.5 342.4463,-423.5 396.4463,-423.5 396.4463,-387.5 342.4463,-387.5"/>
<text text-anchor="middle" x="369.4463" y="-401.3" font-family="Times,serif" font-size="14.00" fill="#000000">games</text>
</a></g></g><!-- web&#45;&gt;games --><g id="edge37" class="edge"><title>web-&gt;games</title><path fill="none" stroke="#000000" d="M141.6279,-300.6491C141.6279,-334.8636 141.6279,-405.5 141.6279,-405.5 141.6279,-405.5 332.4179,-405.5 332.4179,-405.5"/><polygon fill="#000000" stroke="#000000" points="332.4179,-409.0001 342.4179,-405.5 332.4179,-402.0001 332.4179,-409.0001"/></g><!-- web&#45;template --><g id="node17" class="node"><title>web-template</title><g id="a_node17"><a xlink:href="https://github.com/ScalaWilliam/ActionFPS/tree/master//web/web-template" xlink:title="web-template" xlink:type="simple" xlink:show="replace" xlink:actuate="onRequest">
<polygon fill="none" stroke="#000000" points="458.0371,-346.5 458.0371,-382.5 550.2236,-382.5 550.2236,-346.5 458.0371,-346.5"/>
<text text-anchor="middle" x="504.1304" y="-360.3" font-family="Times,serif" font-size="14.00" fill="#000000">web-template</text>
</a></g></g><!-- web&#45;&gt;web&#45;template --><g id="edge43" class="edge"><title>web-&gt;web-template</title><path fill="none" stroke="#000000" d="M155.6279,-300.8662C155.6279,-325.7604 155.6279,-367.1429 155.6279,-367.1429 155.6279,-367.1429 447.8519,-367.1429 447.8519,-367.1429"/><polygon fill="#000000" stroke="#000000" points="447.852,-370.643 457.8519,-367.1429 447.8519,-363.643 447.852,-370.643"/></g><!-- downloads --><g id="node18" class="node"><title>downloads</title><g id="a_node18"><a xlink:href="https://github.com/ScalaWilliam/ActionFPS/tree/master//downloads" xlink:title="downloads" xlink:type="simple" xlink:show="replace" xlink:actuate="onRequest">
<polygon fill="none" stroke="#000000" points="204.1934,-305.5 204.1934,-341.5 280.8555,-341.5 280.8555,-305.5 204.1934,-305.5"/>
<text text-anchor="middle" x="242.5244" y="-319.3" font-family="Times,serif" font-size="14.00" fill="#000000">downloads</text>
</a></g></g><!-- web&#45;&gt;downloads --><g id="edge36" class="edge"><title>web-&gt;downloads</title><path fill="none" stroke="#000000" d="M168.1997,-292.3333C188.4287,-292.3333 212.6279,-292.3333 212.6279,-292.3333 212.6279,-292.3333 212.6279,-295.3702 212.6279,-295.3702"/><polygon fill="#000000" stroke="#000000" points="209.128,-295.3702 212.6279,-305.3702 216.128,-295.3703 209.128,-295.3702"/></g><!-- inters --><g id="node19" class="node"><title>inters</title><g id="a_node19"><a xlink:href="https://github.com/ScalaWilliam/ActionFPS/tree/master//inters" xlink:title="inters" xlink:type="simple" xlink:show="replace" xlink:actuate="onRequest">
<polygon fill="none" stroke="#000000" points="215.5244,-223.5 215.5244,-259.5 269.5244,-259.5 269.5244,-223.5 215.5244,-223.5"/>
<text text-anchor="middle" x="242.5244" y="-237.3" font-family="Times,serif" font-size="14.00" fill="#000000">inters</text>
</a></g></g><!-- web&#45;&gt;inters --><g id="edge38" class="edge"><title>web-&gt;inters</title><path fill="none" stroke="#000000" d="M155.6279,-264.3102C155.6279,-259.1962 155.6279,-255 155.6279,-255 155.6279,-255 205.5062,-255 205.5062,-255"/><polygon fill="#000000" stroke="#000000" points="205.5062,-258.5001 215.5062,-255 205.5061,-251.5001 205.5062,-258.5001"/></g><!-- ladder --><g id="node21" class="node"><title>ladder</title><g id="a_node21"><a xlink:href="https://github.com/ScalaWilliam/ActionFPS/tree/master//ladder" xlink:title="ladder" xlink:type="simple" xlink:show="replace" xlink:actuate="onRequest">
<polygon fill="none" stroke="#000000" points="342.4463,-142.5 342.4463,-178.5 396.4463,-178.5 396.4463,-142.5 342.4463,-142.5"/>
<text text-anchor="middle" x="369.4463" y="-156.3" font-family="Times,serif" font-size="14.00" fill="#000000">ladder</text>
</a></g></g><!-- web&#45;&gt;ladder --><g id="edge39" class="edge"><title>web-&gt;ladder</title><path fill="none" stroke="#000000" d="M141.6279,-264.4985C141.6279,-230.5621 141.6279,-160.5 141.6279,-160.5 141.6279,-160.5 332.4179,-160.5 332.4179,-160.5"/><polygon fill="#000000" stroke="#000000" points="332.4179,-164.0001 342.4179,-160.5 332.4179,-157.0001 332.4179,-164.0001"/></g><!-- logServer --><g id="node23" class="node"><title>logServer</title><g id="a_node23"><a xlink:href="https://github.com/ScalaWilliam/ActionFPS/tree/master//log-server" xlink:title="logServer" xlink:type="simple" xlink:show="replace" xlink:actuate="onRequest">
<polygon fill="none" stroke="#000000" points="207.3105,-25.5 207.3105,-61.5 277.7383,-61.5 277.7383,-25.5 207.3105,-25.5"/>
<text text-anchor="middle" x="242.5244" y="-39.3" font-family="Times,serif" font-size="14.00" fill="#000000">logServer</text>
</a></g></g><!-- web&#45;&gt;logServer --><g id="edge40" class="edge"><title>web-&gt;logServer</title><path fill="none" stroke="#000000" d="M168.2374,-269.5C187.7335,-269.5 210.6279,-269.5 210.6279,-269.5 210.6279,-269.5 210.6279,-71.6125 210.6279,-71.6125"/><polygon fill="#000000" stroke="#000000" points="214.128,-71.6125 210.6279,-61.6125 207.128,-71.6125 214.128,-71.6125"/></g><!-- players --><g id="node25" class="node"><title>players</title><g id="a_node25"><a xlink:href="https://github.com/ScalaWilliam/ActionFPS/tree/master//players" xlink:title="players" xlink:type="simple" xlink:show="replace" xlink:actuate="onRequest">
<polygon fill="none" stroke="#000000" points="214.3105,-101.5 214.3105,-137.5 270.7383,-137.5 270.7383,-101.5 214.3105,-101.5"/>
<text text-anchor="middle" x="242.5244" y="-115.3" font-family="Times,serif" font-size="14.00" fill="#000000">players</text>
</a></g></g><!-- web&#45;&gt;players --><g id="edge41" class="edge"><title>web-&gt;players</title><path fill="none" stroke="#000000" d="M128.6279,-264.4334C128.6279,-221.9943 128.6279,-119.5 128.6279,-119.5 128.6279,-119.5 204.0773,-119.5 204.0773,-119.5"/><polygon fill="#000000" stroke="#000000" points="204.0774,-123.0001 214.0773,-119.5 204.0773,-116.0001 204.0774,-123.0001"/></g><!-- servers --><g id="node26" class="node"><title>servers</title><g id="a_node26"><a xlink:href="https://github.com/ScalaWilliam/ActionFPS/tree/master//servers" xlink:title="servers" xlink:type="simple" xlink:show="replace" xlink:actuate="onRequest">
<polygon fill="none" stroke="#000000" points="341.6221,-275.5 341.6221,-311.5 397.2705,-311.5 397.2705,-275.5 341.6221,-275.5"/>
<text text-anchor="middle" x="369.4463" y="-289.3" font-family="Times,serif" font-size="14.00" fill="#000000">servers</text>
</a></g></g><!-- web&#45;&gt;servers --><g id="edge42" class="edge"><title>web-&gt;servers</title><path fill="none" stroke="#000000" d="M168.2733,-283.6667C168.2733,-283.6667 331.3311,-283.6667 331.3311,-283.6667"/><polygon fill="#000000" stroke="#000000" points="331.3311,-287.1668 341.3311,-283.6667 331.3311,-280.1668 331.3311,-287.1668"/></g><!-- clans&#45;&gt;clan&#45;stats --><g id="edge9" class="edge"><title>clans-&gt;clan-stats</title><path fill="none" stroke="#000000" d="M269.8916,-481.2C269.8916,-481.2 874.4806,-481.2 874.4806,-481.2"/><polygon fill="#000000" stroke="#000000" points="874.4807,-484.7001 884.4806,-481.2 874.4806,-477.7001 874.4807,-484.7001"/></g><!-- clans&#45;challonge --><g id="node13" class="node"><title>clans-challonge</title><g id="a_node13"><a xlink:href="https://github.com/ScalaWilliam/ActionFPS/tree/master//clans/challonge" xlink:title="clans-challonge" xlink:type="simple" xlink:show="replace" xlink:actuate="onRequest">
<polygon fill="none" stroke="#000000" points="586.2236,-559.5 586.2236,-595.5 690.0723,-595.5 690.0723,-559.5 586.2236,-559.5"/>
<text text-anchor="middle" x="638.1479" y="-573.3" font-family="Times,serif" font-size="14.00" fill="#000000">clans-challonge</text>
</a></g></g><!-- clans&#45;&gt;clans&#45;challonge --><g id="edge10" class="edge"><title>clans-&gt;clans-challonge</title><path fill="none" stroke="#000000" d="M269.5499,-490.4C351.3383,-490.4 590.6279,-490.4 590.6279,-490.4 590.6279,-490.4 590.6279,-549.4528 590.6279,-549.4528"/><polygon fill="#000000" stroke="#000000" points="587.128,-549.4528 590.6279,-559.4528 594.128,-549.4529 587.128,-549.4528"/></g><!-- clanwars --><g id="node14" class="node"><title>clanwars</title><g id="a_node14"><a xlink:href="https://github.com/ScalaWilliam/ActionFPS/tree/master//clans/clanwars" xlink:title="clanwars" xlink:type="simple" xlink:show="replace" xlink:actuate="onRequest">
<polygon fill="none" stroke="#000000" points="738.9033,-518.5 738.9033,-554.5 804.6553,-554.5 804.6553,-518.5 738.9033,-518.5"/>
<text text-anchor="middle" x="771.7793" y="-532.3" font-family="Times,serif" font-size="14.00" fill="#000000">clanwars</text>
</a></g></g><!-- clans&#45;&gt;clanwars --><g id="edge11" class="edge"><title>clans-&gt;clanwars</title><path fill="none" stroke="#000000" d="M269.5411,-485.8C377.5659,-485.8 772.6279,-485.8 772.6279,-485.8 772.6279,-485.8 772.6279,-508.4823 772.6279,-508.4823"/><polygon fill="#000000" stroke="#000000" points="769.128,-508.4823 772.6279,-518.4823 776.128,-508.4824 769.128,-508.4823"/></g><!-- clans&#45;&gt;games --><g id="edge12" class="edge"><title>clans-&gt;games</title><path fill="none" stroke="#000000" d="M269.7913,-465.3333C307.1385,-465.3333 369.6279,-465.3333 369.6279,-465.3333 369.6279,-465.3333 369.6279,-433.7771 369.6279,-433.7771"/><polygon fill="#000000" stroke="#000000" points="373.128,-433.7771 369.6279,-423.7771 366.128,-433.7771 373.128,-433.7771"/></g><!-- json&#45;formats --><g id="node16" class="node"><title>json-formats</title><g id="a_node16"><a xlink:href="https://github.com/ScalaWilliam/ActionFPS/tree/master//web/json-formats" xlink:title="json-formats" xlink:type="simple" xlink:show="replace" xlink:actuate="onRequest">
<polygon fill="none" stroke="#000000" points="594.7651,-346.5 594.7651,-382.5 681.5308,-382.5 681.5308,-346.5 594.7651,-346.5"/>
<text text-anchor="middle" x="638.1479" y="-360.3" font-family="Times,serif" font-size="14.00" fill="#000000">json-formats</text>
</a></g></g><!-- clans&#45;&gt;json&#45;formats --><g id="edge13" class="edge"><title>clans-&gt;json-formats</title><path fill="none" stroke="#000000" d="M269.7502,-468.6667C359.2413,-468.6667 638.6279,-468.6667 638.6279,-468.6667 638.6279,-468.6667 638.6279,-392.6444 638.6279,-392.6444"/><polygon fill="#000000" stroke="#000000" points="642.128,-392.6444 638.6279,-382.6444 635.128,-392.6445 642.128,-392.6444"/></g><!-- clans&#45;&gt;web&#45;template --><g id="edge14" class="edge"><title>clans-&gt;web-template</title><path fill="none" stroke="#000000" d="M242.6279,-458.3721C242.6279,-428.555 242.6279,-372.4286 242.6279,-372.4286 242.6279,-372.4286 447.9809,-372.4286 447.9809,-372.4286"/><polygon fill="#000000" stroke="#000000" points="447.981,-375.9287 457.9809,-372.4286 447.9809,-368.9287 447.981,-375.9287"/></g><!-- clans&#45;challonge&#45;&gt;pure&#45;clanwar --><g id="edge15" class="edge"><title>clans-challonge-&gt;pure-clanwar</title><path fill="none" stroke="#000000" d="M690.3248,-577.5C807.5552,-577.5 1081.6279,-577.5 1081.6279,-577.5 1081.6279,-577.5 1081.6279,-518.5265 1081.6279,-518.5265"/><polygon fill="#000000" stroke="#000000" points="1085.128,-518.5264 1081.6279,-508.5265 1078.128,-518.5265 1085.128,-518.5264"/></g><!-- clanwars&#45;&gt;pure&#45;clanwar --><g id="edge17" class="edge"><title>clanwars-&gt;pure-clanwar</title><path fill="none" stroke="#000000" d="M804.7044,-536.5C878.6801,-536.5 1051.6279,-536.5 1051.6279,-536.5 1051.6279,-536.5 1051.6279,-518.6804 1051.6279,-518.6804"/><polygon fill="#000000" stroke="#000000" points="1055.128,-518.6804 1051.6279,-508.6804 1048.128,-518.6805 1055.128,-518.6804"/></g><!-- games&#45;&gt;accumulation --><g id="edge20" class="edge"><title>games-&gt;accumulation</title><path fill="none" stroke="#000000" d="M396.4472,-405.5C480.6155,-405.5 732.6279,-405.5 732.6279,-405.5 732.6279,-405.5 732.6279,-392.6025 732.6279,-392.6025"/><polygon fill="#000000" stroke="#000000" points="736.128,-392.6025 732.6279,-382.6025 729.128,-392.6026 736.128,-392.6025"/></g><!-- games&#45;&gt;web&#45;template --><g id="edge21" class="edge"><title>games-&gt;web-template</title><path fill="none" stroke="#000000" d="M378.6279,-387.4324C378.6279,-382.1253 378.6279,-377.7143 378.6279,-377.7143 378.6279,-377.7143 447.7545,-377.7143 447.7545,-377.7143"/><polygon fill="#000000" stroke="#000000" points="447.7545,-381.2144 457.7545,-377.7143 447.7544,-374.2144 447.7545,-381.2144"/></g><!-- json&#45;formats&#45;&gt;accumulation --><g id="edge44" class="edge"><title>json-formats-&gt;accumulation</title><path fill="none" stroke="#000000" d="M681.5342,-364.5C681.5342,-364.5 715.8509,-364.5 715.8509,-364.5"/><polygon fill="#000000" stroke="#000000" points="715.8509,-368.0001 725.8509,-364.5 715.8508,-361.0001 715.8509,-368.0001"/></g><!-- web&#45;template&#45;&gt;json&#45;formats --><g id="edge45" class="edge"><title>web-template-&gt;json-formats</title><path fill="none" stroke="#000000" d="M550.2516,-364.5C550.2516,-364.5 584.6507,-364.5 584.6507,-364.5"/><polygon fill="#000000" stroke="#000000" points="584.6508,-368.0001 594.6507,-364.5 584.6507,-361.0001 584.6508,-368.0001"/></g><!-- downloads&#45;&gt;web&#45;template --><g id="edge19" class="edge"><title>downloads-&gt;web-template</title><path fill="none" stroke="#000000" d="M275.6279,-341.7799C275.6279,-351.6592 275.6279,-361.8571 275.6279,-361.8571 275.6279,-361.8571 447.8895,-361.8571 447.8895,-361.8571"/><polygon fill="#000000" stroke="#000000" points="447.8895,-365.3572 457.8895,-361.8571 447.8895,-358.3572 447.8895,-365.3572"/></g><!-- inters&#45;&gt;accumulation --><g id="edge22" class="edge"><title>inters-&gt;accumulation</title><path fill="none" stroke="#000000" d="M269.8763,-235.75C374.654,-235.75 744.6279,-235.75 744.6279,-235.75 744.6279,-235.75 744.6279,-336.3263 744.6279,-336.3263"/><polygon fill="#000000" stroke="#000000" points="741.128,-336.3263 744.6279,-346.3263 748.128,-336.3264 741.128,-336.3263"/></g><!-- inter&#45;parser --><g id="node20" class="node"><title>inter-parser</title><g id="a_node20"><a xlink:href="https://github.com/ScalaWilliam/ActionFPS/tree/master//inters/inter-parser" xlink:title="inter-parser" xlink:type="simple" xlink:show="replace" xlink:actuate="onRequest">
<polygon fill="none" stroke="#000000" points="329.3242,-193.5 329.3242,-229.5 409.5684,-229.5 409.5684,-193.5 329.3242,-193.5"/>
<text text-anchor="middle" x="369.4463" y="-207.3" font-family="Times,serif" font-size="14.00" fill="#000000">inter-parser</text>
</a></g></g><!-- inters&#45;&gt;inter&#45;parser --><g id="edge23" class="edge"><title>inters-&gt;inter-parser</title><path fill="none" stroke="#000000" d="M269.7523,-226.5C269.7523,-226.5 319.2452,-226.5 319.2452,-226.5"/><polygon fill="#000000" stroke="#000000" points="319.2452,-230.0001 329.2452,-226.5 319.2452,-223.0001 319.2452,-230.0001"/></g><!-- ladder&#45;&gt;player&#45;user --><g id="edge25" class="edge"><title>ladder-&gt;player-user</title><path fill="none" stroke="#000000" d="M396.6892,-151.25C523.9388,-151.25 1053.6279,-151.25 1053.6279,-151.25 1053.6279,-151.25 1053.6279,-206.436 1053.6279,-206.436"/><polygon fill="#000000" stroke="#000000" points="1050.128,-206.436 1053.6279,-216.436 1057.128,-206.436 1050.128,-206.436"/></g><!-- ladder&#45;&gt;web&#45;template --><g id="edge26" class="edge"><title>ladder-&gt;web-template</title><path fill="none" stroke="#000000" d="M396.6187,-169.75C407.1068,-169.75 416.6279,-169.75 416.6279,-169.75 416.6279,-169.75 416.6279,-351.2857 416.6279,-351.2857 416.6279,-351.2857 447.8169,-351.2857 447.8169,-351.2857"/><polygon fill="#000000" stroke="#000000" points="447.8169,-354.7858 457.8169,-351.2857 447.8169,-347.7858 447.8169,-354.7858"/></g><!-- ladder&#45;parser --><g id="node22" class="node"><title>ladder-parser</title><g id="a_node22"><a xlink:href="https://github.com/ScalaWilliam/ActionFPS/tree/master//ladder/ladder-parser" xlink:title="ladder-parser" xlink:type="simple" xlink:show="replace" xlink:actuate="onRequest">
<polygon fill="none" stroke="#000000" points="459.3462,-193.5 459.3462,-229.5 548.9146,-229.5 548.9146,-193.5 459.3462,-193.5"/>
<text text-anchor="middle" x="504.1304" y="-207.3" font-family="Times,serif" font-size="14.00" fill="#000000">ladder-parser</text>
</a></g></g><!-- ladder&#45;&gt;ladder&#45;parser --><g id="edge24" class="edge"><title>ladder-&gt;ladder-parser</title><path fill="none" stroke="#000000" d="M396.4774,-160.5C435.9269,-160.5 504.6279,-160.5 504.6279,-160.5 504.6279,-160.5 504.6279,-183.3757 504.6279,-183.3757"/><polygon fill="#000000" stroke="#000000" points="501.128,-183.3757 504.6279,-193.3757 508.128,-183.3757 501.128,-183.3757"/></g><!-- fileOffsetFinder --><g id="node24" class="node"><title>fileOffsetFinder</title><g id="a_node24"><a xlink:href="https://github.com/ScalaWilliam/ActionFPS/tree/master//log-server/file-offset-finder" xlink:title="fileOffsetFinder" xlink:type="simple" xlink:show="replace" xlink:actuate="onRequest">
<polygon fill="none" stroke="#000000" points="316.8555,-.5 316.8555,-36.5 422.0371,-36.5 422.0371,-.5 316.8555,-.5"/>
<text text-anchor="middle" x="369.4463" y="-14.3" font-family="Times,serif" font-size="14.00" fill="#000000">fileOffsetFinder</text>
</a></g></g><!-- logServer&#45;&gt;fileOffsetFinder --><g id="edge27" class="edge"><title>logServer-&gt;fileOffsetFinder</title><path fill="none" stroke="#000000" d="M277.8792,-31C277.8792,-31 306.7169,-31 306.7169,-31"/><polygon fill="#000000" stroke="#000000" points="306.7169,-34.5001 316.7169,-31 306.7169,-27.5001 306.7169,-34.5001"/></g><!-- players&#45;&gt;player&#45;stats --><g id="edge30" class="edge"><title>players-&gt;player-stats</title><path fill="none" stroke="#000000" d="M270.7415,-107C270.7415,-107 869.101,-107 869.101,-107"/><polygon fill="#000000" stroke="#000000" points="869.101,-110.5001 879.101,-107 869.101,-103.5001 869.101,-110.5001"/></g><!-- players&#45;&gt;player&#45;user --><g id="edge31" class="edge"><title>players-&gt;player-user</title><path fill="none" stroke="#000000" d="M270.856,-123.75C417.082,-123.75 1079.6279,-123.75 1079.6279,-123.75 1079.6279,-123.75 1079.6279,-206.2119 1079.6279,-206.2119"/><polygon fill="#000000" stroke="#000000" points="1076.128,-206.2119 1079.6279,-216.2119 1083.128,-206.2119 1076.128,-206.2119"/></g><!-- players&#45;&gt;json&#45;formats --><g id="edge28" class="edge"><title>players-&gt;json-formats</title><path fill="none" stroke="#000000" d="M271.0112,-128.5C361.8342,-128.5 638.6279,-128.5 638.6279,-128.5 638.6279,-128.5 638.6279,-336.3733 638.6279,-336.3733"/><polygon fill="#000000" stroke="#000000" points="635.128,-336.3733 638.6279,-346.3733 642.128,-336.3734 635.128,-336.3733"/></g><!-- players&#45;&gt;ladder --><g id="edge29" class="edge"><title>players-&gt;ladder</title><path fill="none" stroke="#000000" d="M271.0489,-133.25C308.5233,-133.25 369.6279,-133.25 369.6279,-133.25 369.6279,-133.25 369.6279,-134.1726 369.6279,-134.1726"/><polygon fill="#000000" stroke="#000000" points="366.1281,-132.4756 369.6279,-142.4756 373.1281,-132.4756 366.1281,-132.4756"/></g><!-- servers&#45;&gt;reference&#45;servers --><g id="edge33" class="edge"><title>servers-&gt;reference-servers</title><path fill="none" stroke="#000000" d="M397.4677,-281C397.4677,-281 853.0734,-281 853.0734,-281"/><polygon fill="#000000" stroke="#000000" points="853.0734,-284.5001 863.0734,-281 853.0734,-277.5001 853.0734,-284.5001"/></g><!-- servers&#45;&gt;web&#45;template --><g id="edge34" class="edge"><title>servers-&gt;web-template</title><path fill="none" stroke="#000000" d="M360.6279,-311.7429C360.6279,-330.3703 360.6279,-356.5714 360.6279,-356.5714 360.6279,-356.5714 447.9354,-356.5714 447.9354,-356.5714"/><polygon fill="#000000" stroke="#000000" points="447.9354,-360.0715 457.9354,-356.5714 447.9354,-353.0715 447.9354,-360.0715"/></g></g></svg>