<?xml version="1.0" encoding="UTF-8" standalone="no"?>
<!DOCTYPE svg PUBLIC "-//W3C//DTD SVG 1.1//EN"
 "http://www.w3.org/Graphics/SVG/1.1/DTD/svg11.dtd">
<!-- Generated by graphviz version 2.40.1 (20161225.0304)
 -->
<!-- Title: %3 Pages: 1 -->
<svg width="1228pt" height="2100pt"
 viewBox="0.00 0.00 1227.63 2100.00" xmlns="http://www.w3.org/2000/svg" xmlns:xlink="http://www.w3.org/1999/xlink">
<g id="graph0" class="graph" transform="scale(1 1) rotate(0) translate(4 2096)">
<title>%3</title>
<polygon fill="#ffffff" stroke="transparent" points="-4,4 -4,-2096 1223.6279,-2096 1223.6279,4 -4,4"/>
<!-- actionfps -->
<g id="node1" class="node">
<title>actionfps</title>
<polygon fill="none" stroke="#000000" points="5.438,-841.5 5.438,-877.5 72.7554,-877.5 72.7554,-841.5 5.438,-841.5"/>
<text text-anchor="middle" x="39.0967" y="-855.3" font-family="Times,serif" font-size="14.00" fill="#000000">actionfps</text>
</g>
<!-- accumulation -->
<g id="node2" class="node">
<title>accumulation</title>
<polygon fill="none" stroke="#000000" points="726.0723,-1205.5 726.0723,-1241.5 817.4863,-1241.5 817.4863,-1205.5 726.0723,-1205.5"/>
<text text-anchor="middle" x="771.7793" y="-1219.3" font-family="Times,serif" font-size="14.00" fill="#000000">accumulation</text>
</g>
<!-- clan&#45;stats -->
<g id="node3" class="node">
<title>clan&#45;stats</title>
<polygon fill="none" stroke="#000000" points="884.8291,-1753.5 884.8291,-1789.5 953.6982,-1789.5 953.6982,-1753.5 884.8291,-1753.5"/>
<text text-anchor="middle" x="919.2637" y="-1767.3" font-family="Times,serif" font-size="14.00" fill="#000000">clan&#45;stats</text>
</g>
<!-- accumulation&#45;&gt;clan&#45;stats -->
<g id="edge1" class="edge">
<title>accumulation&#45;&gt;clan&#45;stats</title>
<path fill="none" stroke="#000000" d="M809.6279,-1241.5278C809.6279,-1335.5441 809.6279,-1765.3333 809.6279,-1765.3333 809.6279,-1765.3333 874.5742,-1765.3333 874.5742,-1765.3333"/>
<polygon fill="#000000" stroke="#000000" points="874.5743,-1768.8334 884.5742,-1765.3333 874.5742,-1761.8334 874.5743,-1768.8334"/>
</g>
<!-- clans&#45;clan -->
<g id="node4" class="node">
<title>clans&#45;clan</title>
<polygon fill="none" stroke="#000000" points="1146.8828,-1588.5 1146.8828,-1624.5 1219.6279,-1624.5 1219.6279,-1588.5 1146.8828,-1588.5"/>
<text text-anchor="middle" x="1183.2554" y="-1602.3" font-family="Times,serif" font-size="14.00" fill="#000000">clans&#45;clan</text>
</g>
<!-- accumulation&#45;&gt;clans&#45;clan -->
<g id="edge2" class="edge">
<title>accumulation&#45;&gt;clans&#45;clan</title>
<path fill="none" stroke="#000000" d="M813.6279,-1241.7152C813.6279,-1317.8295 813.6279,-1606.5 813.6279,-1606.5 813.6279,-1606.5 1136.8025,-1606.5 1136.8025,-1606.5"/>
<polygon fill="#000000" stroke="#000000" points="1136.8025,-1610.0001 1146.8025,-1606.5 1136.8025,-1603.0001 1136.8025,-1610.0001"/>
</g>
<!-- player&#45;achievements -->
<g id="node5" class="node">
<title>player&#45;achievements</title>
<polygon fill="none" stroke="#000000" points="853.4863,-1077.5 853.4863,-1113.5 985.041,-1113.5 985.041,-1077.5 853.4863,-1077.5"/>
<text text-anchor="middle" x="919.2637" y="-1091.3" font-family="Times,serif" font-size="14.00" fill="#000000">player&#45;achievements</text>
</g>
<!-- accumulation&#45;&gt;player&#45;achievements -->
<g id="edge3" class="edge">
<title>accumulation&#45;&gt;player&#45;achievements</title>
<path fill="none" stroke="#000000" d="M817.5522,-1214.25C843.0184,-1214.25 869.6279,-1214.25 869.6279,-1214.25 869.6279,-1214.25 869.6279,-1123.5356 869.6279,-1123.5356"/>
<polygon fill="#000000" stroke="#000000" points="873.128,-1123.5355 869.6279,-1113.5356 866.128,-1123.5356 873.128,-1123.5355"/>
</g>
<!-- player&#45;stats -->
<g id="node6" class="node">
<title>player&#45;stats</title>
<polygon fill="none" stroke="#000000" points="879.1348,-283.5 879.1348,-319.5 959.3926,-319.5 959.3926,-283.5 879.1348,-283.5"/>
<text text-anchor="middle" x="919.2637" y="-297.3" font-family="Times,serif" font-size="14.00" fill="#000000">player&#45;stats</text>
</g>
<!-- accumulation&#45;&gt;player&#45;stats -->
<g id="edge4" class="edge">
<title>accumulation&#45;&gt;player&#45;stats</title>
<path fill="none" stroke="#000000" d="M772.6279,-1205.2059C772.6279,-1076.1283 772.6279,-307.6667 772.6279,-307.6667 772.6279,-307.6667 868.8066,-307.6667 868.8066,-307.6667"/>
<polygon fill="#000000" stroke="#000000" points="868.8066,-311.1666 878.8066,-307.6667 868.8067,-304.1666 868.8066,-311.1666"/>
</g>
<!-- player&#45;user -->
<g id="node7" class="node">
<title>player&#45;user</title>
<polygon fill="none" stroke="#000000" points="1026.6157,-748.5 1026.6157,-784.5 1105.3081,-784.5 1105.3081,-748.5 1026.6157,-748.5"/>
<text text-anchor="middle" x="1065.9619" y="-762.3" font-family="Times,serif" font-size="14.00" fill="#000000">player&#45;user</text>
</g>
<!-- accumulation&#45;&gt;player&#45;user -->
<g id="edge5" class="edge">
<title>accumulation&#45;&gt;player&#45;user</title>
<path fill="none" stroke="#000000" d="M817.5349,-1223.5C903.292,-1223.5 1079.6279,-1223.5 1079.6279,-1223.5 1079.6279,-1223.5 1079.6279,-794.697 1079.6279,-794.697"/>
<polygon fill="#000000" stroke="#000000" points="1083.128,-794.6969 1079.6279,-784.697 1076.128,-794.697 1083.128,-794.6969"/>
</g>
<!-- pure&#45;clanwar -->
<g id="node8" class="node">
<title>pure&#45;clanwar</title>
<polygon fill="none" stroke="#000000" points="1021.041,-1753.5 1021.041,-1789.5 1110.8828,-1789.5 1110.8828,-1753.5 1021.041,-1753.5"/>
<text text-anchor="middle" x="1065.9619" y="-1767.3" font-family="Times,serif" font-size="14.00" fill="#000000">pure&#45;clanwar</text>
</g>
<!-- accumulation&#45;&gt;pure&#45;clanwar -->
<g id="edge6" class="edge">
<title>accumulation&#45;&gt;pure&#45;clanwar</title>
<path fill="none" stroke="#000000" d="M817.6904,-1232.75C897.5556,-1232.75 1053.6279,-1232.75 1053.6279,-1232.75 1053.6279,-1232.75 1053.6279,-1743.2661 1053.6279,-1743.2661"/>
<polygon fill="#000000" stroke="#000000" points="1050.128,-1743.2661 1053.6279,-1753.2661 1057.128,-1743.2662 1050.128,-1743.2661"/>
</g>
<!-- reference&#45;servers -->
<g id="node9" class="node">
<title>reference&#45;servers</title>
<polygon fill="none" stroke="#000000" points="863.0806,-968.5 863.0806,-1004.5 975.4468,-1004.5 975.4468,-968.5 863.0806,-968.5"/>
<text text-anchor="middle" x="919.2637" y="-982.3" font-family="Times,serif" font-size="14.00" fill="#000000">reference&#45;servers</text>
</g>
<!-- accumulation&#45;&gt;reference&#45;servers -->
<g id="edge7" class="edge">
<title>accumulation&#45;&gt;reference&#45;servers</title>
<path fill="none" stroke="#000000" d="M795.6279,-1205.2673C795.6279,-1151.2824 795.6279,-996 795.6279,-996 795.6279,-996 852.8728,-996 852.8728,-996"/>
<polygon fill="#000000" stroke="#000000" points="852.8728,-999.5001 862.8728,-996 852.8728,-992.5001 852.8728,-999.5001"/>
</g>
<!-- clan&#45;stats&#45;&gt;pure&#45;clanwar -->
<g id="edge16" class="edge">
<title>clan&#45;stats&#45;&gt;pure&#45;clanwar</title>
<path fill="none" stroke="#000000" d="M954.0291,-1771.5C954.0291,-1771.5 1010.8819,-1771.5 1010.8819,-1771.5"/>
<polygon fill="#000000" stroke="#000000" points="1010.8819,-1775.0001 1020.8819,-1771.5 1010.8819,-1768.0001 1010.8819,-1775.0001"/>
</g>
<!-- player&#45;achievements&#45;&gt;player&#45;user -->
<g id="edge32" class="edge">
<title>player&#45;achievements&#45;&gt;player&#45;user</title>
<path fill="none" stroke="#000000" d="M980.6279,-1077.2181C980.6279,-1008.9247 980.6279,-772.6667 980.6279,-772.6667 980.6279,-772.6667 1016.2927,-772.6667 1016.2927,-772.6667"/>
<polygon fill="#000000" stroke="#000000" points="1016.2928,-776.1668 1026.2927,-772.6667 1016.2927,-769.1668 1016.2928,-776.1668"/>
</g>
<!-- pure&#45;clanwar&#45;&gt;clans&#45;clan -->
<g id="edge18" class="edge">
<title>pure&#45;clanwar&#45;&gt;clans&#45;clan</title>
<path fill="none" stroke="#000000" d="M1111.1182,-1771.5C1144.3006,-1771.5 1183.6279,-1771.5 1183.6279,-1771.5 1183.6279,-1771.5 1183.6279,-1634.7883 1183.6279,-1634.7883"/>
<polygon fill="#000000" stroke="#000000" points="1187.128,-1634.7883 1183.6279,-1624.7883 1180.128,-1634.7884 1187.128,-1634.7883"/>
</g>
<!-- benchmark -->
<g id="node10" class="node">
<title>benchmark</title>
<polygon fill="none" stroke="#000000" points="0,-950.5 0,-986.5 78.1934,-986.5 78.1934,-950.5 0,-950.5"/>
<text text-anchor="middle" x="39.0967" y="-964.3" font-family="Times,serif" font-size="14.00" fill="#000000">benchmark</text>
</g>
<!-- web -->
<g id="node11" class="node">
<title>web</title>
<polygon fill="none" stroke="#000000" points="114.1934,-950.5 114.1934,-986.5 168.1934,-986.5 168.1934,-950.5 114.1934,-950.5"/>
<text text-anchor="middle" x="141.1934" y="-964.3" font-family="Times,serif" font-size="14.00" fill="#000000">web</text>
</g>
<!-- benchmark&#45;&gt;web -->
<g id="edge8" class="edge">
<title>benchmark&#45;&gt;web</title>
<path fill="none" stroke="#000000" d="M78.2779,-968.5C78.2779,-968.5 103.9842,-968.5 103.9842,-968.5"/>
<polygon fill="#000000" stroke="#000000" points="103.9842,-972.0001 113.9842,-968.5 103.9842,-965.0001 103.9842,-972.0001"/>
</g>
<!-- clans -->
<g id="node12" class="node">
<title>clans</title>
<polygon fill="none" stroke="#000000" points="215.5244,-1626.5 215.5244,-1662.5 269.5244,-1662.5 269.5244,-1626.5 215.5244,-1626.5"/>
<text text-anchor="middle" x="242.5244" y="-1640.3" font-family="Times,serif" font-size="14.00" fill="#000000">clans</text>
</g>
<!-- web&#45;&gt;clans -->
<g id="edge35" class="edge">
<title>web&#45;&gt;clans</title>
<path fill="none" stroke="#000000" d="M128.6279,-986.5814C128.6279,-1094.0844 128.6279,-1644.5 128.6279,-1644.5 128.6279,-1644.5 205.2434,-1644.5 205.2434,-1644.5"/>
<polygon fill="#000000" stroke="#000000" points="205.2434,-1648.0001 215.2434,-1644.5 205.2433,-1641.0001 205.2434,-1648.0001"/>
</g>
<!-- games -->
<g id="node15" class="node">
<title>games</title>
<polygon fill="none" stroke="#000000" points="342.4463,-1352.5 342.4463,-1388.5 396.4463,-1388.5 396.4463,-1352.5 342.4463,-1352.5"/>
<text text-anchor="middle" x="369.4463" y="-1366.3" font-family="Times,serif" font-size="14.00" fill="#000000">games</text>
</g>
<!-- web&#45;&gt;games -->
<g id="edge37" class="edge">
<title>web&#45;&gt;games</title>
<path fill="none" stroke="#000000" d="M141.6279,-986.5541C141.6279,-1064.7763 141.6279,-1370.5 141.6279,-1370.5 141.6279,-1370.5 332.4179,-1370.5 332.4179,-1370.5"/>
<polygon fill="#000000" stroke="#000000" points="332.4179,-1374.0001 342.4179,-1370.5 332.4179,-1367.0001 332.4179,-1374.0001"/>
</g>
<!-- web&#45;template -->
<g id="node17" class="node">
<title>web&#45;template</title>
<polygon fill="none" stroke="#000000" points="458.0371,-1205.5 458.0371,-1241.5 550.2236,-1241.5 550.2236,-1205.5 458.0371,-1205.5"/>
<text text-anchor="middle" x="504.1304" y="-1219.3" font-family="Times,serif" font-size="14.00" fill="#000000">web&#45;template</text>
</g>
<!-- web&#45;&gt;web&#45;template -->
<g id="edge43" class="edge">
<title>web&#45;&gt;web&#45;template</title>
<path fill="none" stroke="#000000" d="M155.6279,-986.6169C155.6279,-1045.2619 155.6279,-1226.1429 155.6279,-1226.1429 155.6279,-1226.1429 447.8519,-1226.1429 447.8519,-1226.1429"/>
<polygon fill="#000000" stroke="#000000" points="447.852,-1229.643 457.8519,-1226.1429 447.8519,-1222.643 447.852,-1229.643"/>
</g>
<!-- downloads -->
<g id="node18" class="node">
<title>downloads</title>
<polygon fill="none" stroke="#000000" points="204.1934,-1078.5 204.1934,-1114.5 280.8555,-1114.5 280.8555,-1078.5 204.1934,-1078.5"/>
<text text-anchor="middle" x="242.5244" y="-1092.3" font-family="Times,serif" font-size="14.00" fill="#000000">downloads</text>
</g>
<!-- web&#45;&gt;downloads -->
<g id="edge36" class="edge">
<title>web&#45;&gt;downloads</title>
<path fill="none" stroke="#000000" d="M168.1997,-977.75C188.4287,-977.75 212.6279,-977.75 212.6279,-977.75 212.6279,-977.75 212.6279,-1068.4644 212.6279,-1068.4644"/>
<polygon fill="#000000" stroke="#000000" points="209.128,-1068.4644 212.6279,-1078.4644 216.128,-1068.4645 209.128,-1068.4644"/>
</g>
<!-- inters -->
<g id="node19" class="node">
<title>inters</title>
<polygon fill="none" stroke="#000000" points="215.5244,-822.5 215.5244,-858.5 269.5244,-858.5 269.5244,-822.5 215.5244,-822.5"/>
<text text-anchor="middle" x="242.5244" y="-836.3" font-family="Times,serif" font-size="14.00" fill="#000000">inters</text>
</g>
<!-- web&#45;&gt;inters -->
<g id="edge38" class="edge">
<title>web&#45;&gt;inters</title>
<path fill="none" stroke="#000000" d="M155.6279,-950.2441C155.6279,-917.0039 155.6279,-850 155.6279,-850 155.6279,-850 205.5062,-850 205.5062,-850"/>
<polygon fill="#000000" stroke="#000000" points="205.5062,-853.5001 215.5062,-850 205.5061,-846.5001 205.5062,-853.5001"/>
</g>
<!-- ladder -->
<g id="node21" class="node">
<title>ladder</title>
<polygon fill="none" stroke="#000000" points="342.4463,-585.5 342.4463,-621.5 396.4463,-621.5 396.4463,-585.5 342.4463,-585.5"/>
<text text-anchor="middle" x="369.4463" y="-599.3" font-family="Times,serif" font-size="14.00" fill="#000000">ladder</text>
</g>
<!-- web&#45;&gt;ladder -->
<g id="edge39" class="edge">
<title>web&#45;&gt;ladder</title>
<path fill="none" stroke="#000000" d="M141.6279,-950.3996C141.6279,-876.7501 141.6279,-603.5 141.6279,-603.5 141.6279,-603.5 332.4179,-603.5 332.4179,-603.5"/>
<polygon fill="#000000" stroke="#000000" points="332.4179,-607.0001 342.4179,-603.5 332.4179,-600.0001 332.4179,-607.0001"/>
</g>
<!-- logServer -->
<g id="node23" class="node">
<title>logServer</title>
<polygon fill="none" stroke="#000000" points="207.3105,-174.5 207.3105,-210.5 277.7383,-210.5 277.7383,-174.5 207.3105,-174.5"/>
<text text-anchor="middle" x="242.5244" y="-188.3" font-family="Times,serif" font-size="14.00" fill="#000000">logServer</text>
</g>
<!-- web&#45;&gt;logServer -->
<g id="edge40" class="edge">
<title>web&#45;&gt;logServer</title>
<path fill="none" stroke="#000000" d="M168.2374,-959.25C187.7335,-959.25 210.6279,-959.25 210.6279,-959.25 210.6279,-959.25 210.6279,-220.6972 210.6279,-220.6972"/>
<polygon fill="#000000" stroke="#000000" points="214.128,-220.6972 210.6279,-210.6972 207.128,-220.6972 214.128,-220.6972"/>
</g>
<!-- players -->
<g id="node25" class="node">
<title>players</title>
<polygon fill="none" stroke="#000000" points="214.3105,-457.5 214.3105,-493.5 270.7383,-493.5 270.7383,-457.5 214.3105,-457.5"/>
<text text-anchor="middle" x="242.5244" y="-471.3" font-family="Times,serif" font-size="14.00" fill="#000000">players</text>
</g>
<!-- web&#45;&gt;players -->
<g id="edge41" class="edge">
<title>web&#45;&gt;players</title>
<path fill="none" stroke="#000000" d="M128.6279,-950.3692C128.6279,-861.4254 128.6279,-475.5 128.6279,-475.5 128.6279,-475.5 204.0773,-475.5 204.0773,-475.5"/>
<polygon fill="#000000" stroke="#000000" points="204.0774,-479.0001 214.0773,-475.5 204.0773,-472.0001 204.0774,-479.0001"/>
</g>
<!-- servers -->
<g id="node26" class="node">
<title>servers</title>
<polygon fill="none" stroke="#000000" points="341.6221,-950.5 341.6221,-986.5 397.2705,-986.5 397.2705,-950.5 341.6221,-950.5"/>
<text text-anchor="middle" x="369.4463" y="-964.3" font-family="Times,serif" font-size="14.00" fill="#000000">servers</text>
</g>
<!-- web&#45;&gt;servers -->
<g id="edge42" class="edge">
<title>web&#45;&gt;servers</title>
<path fill="none" stroke="#000000" d="M168.2733,-968.5C168.2733,-968.5 331.3311,-968.5 331.3311,-968.5"/>
<polygon fill="#000000" stroke="#000000" points="331.3311,-972.0001 341.3311,-968.5 331.3311,-965.0001 331.3311,-972.0001"/>
</g>
<!-- clans&#45;&gt;clan&#45;stats -->
<g id="edge9" class="edge">
<title>clans&#45;&gt;clan&#45;stats</title>
<path fill="none" stroke="#000000" d="M251.6279,-1662.737C251.6279,-1699.208 251.6279,-1777.6667 251.6279,-1777.6667 251.6279,-1777.6667 874.7745,-1777.6667 874.7745,-1777.6667"/>
<polygon fill="#000000" stroke="#000000" points="874.7746,-1781.1668 884.7745,-1777.6667 874.7745,-1774.1668 874.7746,-1781.1668"/>
</g>
<!-- clans&#45;challonge -->
<g id="node13" class="node">
<title>clans&#45;challonge</title>
<polygon fill="none" stroke="#000000" points="586.2236,-2055.5 586.2236,-2091.5 690.0723,-2091.5 690.0723,-2055.5 586.2236,-2055.5"/>
<text text-anchor="middle" x="638.1479" y="-2069.3" font-family="Times,serif" font-size="14.00" fill="#000000">clans&#45;challonge</text>
</g>
<!-- clans&#45;&gt;clans&#45;challonge -->
<g id="edge10" class="edge">
<title>clans&#45;&gt;clans&#45;challonge</title>
<path fill="none" stroke="#000000" d="M269.5499,-1653.75C351.3383,-1653.75 590.6279,-1653.75 590.6279,-1653.75 590.6279,-1653.75 590.6279,-2045.4639 590.6279,-2045.4639"/>
<polygon fill="#000000" stroke="#000000" points="587.128,-2045.4638 590.6279,-2055.4639 594.128,-2045.4639 587.128,-2045.4638"/>
</g>
<!-- clanwars -->
<g id="node14" class="node">
<title>clanwars</title>
<polygon fill="none" stroke="#000000" points="738.9033,-1909.5 738.9033,-1945.5 804.6553,-1945.5 804.6553,-1909.5 738.9033,-1909.5"/>
<text text-anchor="middle" x="771.7793" y="-1923.3" font-family="Times,serif" font-size="14.00" fill="#000000">clanwars</text>
</g>
<!-- clans&#45;&gt;clanwars -->
<g id="edge11" class="edge">
<title>clans&#45;&gt;clanwars</title>
<path fill="none" stroke="#000000" d="M233.6279,-1662.6334C233.6279,-1725.0945 233.6279,-1927.5 233.6279,-1927.5 233.6279,-1927.5 728.5216,-1927.5 728.5216,-1927.5"/>
<polygon fill="#000000" stroke="#000000" points="728.5217,-1931.0001 738.5216,-1927.5 728.5216,-1924.0001 728.5217,-1931.0001"/>
</g>
<!-- clans&#45;&gt;games -->
<g id="edge12" class="edge">
<title>clans&#45;&gt;games</title>
<path fill="none" stroke="#000000" d="M269.7913,-1635.25C307.1385,-1635.25 369.6279,-1635.25 369.6279,-1635.25 369.6279,-1635.25 369.6279,-1398.6973 369.6279,-1398.6973"/>
<polygon fill="#000000" stroke="#000000" points="373.128,-1398.6973 369.6279,-1388.6973 366.128,-1398.6974 373.128,-1398.6973"/>
</g>
<!-- json&#45;formats -->
<g id="node16" class="node">
<title>json&#45;formats</title>
<polygon fill="none" stroke="#000000" points="594.7651,-1205.5 594.7651,-1241.5 681.5308,-1241.5 681.5308,-1205.5 594.7651,-1205.5"/>
<text text-anchor="middle" x="638.1479" y="-1219.3" font-family="Times,serif" font-size="14.00" fill="#000000">json&#45;formats</text>
</g>
<!-- clans&#45;&gt;json&#45;formats -->
<g id="edge13" class="edge">
<title>clans&#45;&gt;json&#45;formats</title>
<path fill="none" stroke="#000000" d="M269.7502,-1644.5C359.2413,-1644.5 638.6279,-1644.5 638.6279,-1644.5 638.6279,-1644.5 638.6279,-1251.5898 638.6279,-1251.5898"/>
<polygon fill="#000000" stroke="#000000" points="642.128,-1251.5898 638.6279,-1241.5898 635.128,-1251.5899 642.128,-1251.5898"/>
</g>
<!-- clans&#45;&gt;web&#45;template -->
<g id="edge14" class="edge">
<title>clans&#45;&gt;web&#45;template</title>
<path fill="none" stroke="#000000" d="M242.6279,-1626.4852C242.6279,-1546.9808 242.6279,-1231.4286 242.6279,-1231.4286 242.6279,-1231.4286 447.9809,-1231.4286 447.9809,-1231.4286"/>
<polygon fill="#000000" stroke="#000000" points="447.981,-1234.9287 457.9809,-1231.4286 447.9809,-1227.9287 447.981,-1234.9287"/>
</g>
<!-- clans&#45;challonge&#45;&gt;pure&#45;clanwar -->
<g id="edge15" class="edge">
<title>clans&#45;challonge&#45;&gt;pure&#45;clanwar</title>
<path fill="none" stroke="#000000" d="M690.3248,-2073.5C807.5552,-2073.5 1081.6279,-2073.5 1081.6279,-2073.5 1081.6279,-2073.5 1081.6279,-1799.9368 1081.6279,-1799.9368"/>
<polygon fill="#000000" stroke="#000000" points="1085.128,-1799.9368 1081.6279,-1789.9368 1078.128,-1799.9369 1085.128,-1799.9368"/>
</g>
<!-- clanwars&#45;&gt;pure&#45;clanwar -->
<g id="edge17" class="edge">
<title>clanwars&#45;&gt;pure&#45;clanwar</title>
<path fill="none" stroke="#000000" d="M804.7044,-1927.5C878.6801,-1927.5 1051.6279,-1927.5 1051.6279,-1927.5 1051.6279,-1927.5 1051.6279,-1799.7005 1051.6279,-1799.7005"/>
<polygon fill="#000000" stroke="#000000" points="1055.128,-1799.7005 1051.6279,-1789.7005 1048.128,-1799.7005 1055.128,-1799.7005"/>
</g>
<!-- games&#45;&gt;accumulation -->
<g id="edge20" class="edge">
<title>games&#45;&gt;accumulation</title>
<path fill="none" stroke="#000000" d="M396.4472,-1370.5C480.6155,-1370.5 732.6279,-1370.5 732.6279,-1370.5 732.6279,-1370.5 732.6279,-1251.5251 732.6279,-1251.5251"/>
<polygon fill="#000000" stroke="#000000" points="736.128,-1251.5251 732.6279,-1241.5251 729.128,-1251.5251 736.128,-1251.5251"/>
</g>
<!-- games&#45;&gt;web&#45;template -->
<g id="edge21" class="edge">
<title>games&#45;&gt;web&#45;template</title>
<path fill="none" stroke="#000000" d="M378.6279,-1352.4571C378.6279,-1315.9393 378.6279,-1236.7143 378.6279,-1236.7143 378.6279,-1236.7143 447.7545,-1236.7143 447.7545,-1236.7143"/>
<polygon fill="#000000" stroke="#000000" points="447.7545,-1240.2144 457.7545,-1236.7143 447.7544,-1233.2144 447.7545,-1240.2144"/>
</g>
<!-- json&#45;formats&#45;&gt;accumulation -->
<g id="edge44" class="edge">
<title>json&#45;formats&#45;&gt;accumulation</title>
<path fill="none" stroke="#000000" d="M681.5342,-1223.5C681.5342,-1223.5 715.8509,-1223.5 715.8509,-1223.5"/>
<polygon fill="#000000" stroke="#000000" points="715.8509,-1227.0001 725.8509,-1223.5 715.8508,-1220.0001 715.8509,-1227.0001"/>
</g>
<!-- web&#45;template&#45;&gt;json&#45;formats -->
<g id="edge45" class="edge">
<title>web&#45;template&#45;&gt;json&#45;formats</title>
<path fill="none" stroke="#000000" d="M550.2516,-1223.5C550.2516,-1223.5 584.6507,-1223.5 584.6507,-1223.5"/>
<polygon fill="#000000" stroke="#000000" points="584.6508,-1227.0001 594.6507,-1223.5 584.6507,-1220.0001 584.6508,-1227.0001"/>
</g>
<!-- downloads&#45;&gt;web&#45;template -->
<g id="edge19" class="edge">
<title>downloads&#45;&gt;web&#45;template</title>
<path fill="none" stroke="#000000" d="M275.6279,-1114.5826C275.6279,-1149.0728 275.6279,-1220.8571 275.6279,-1220.8571 275.6279,-1220.8571 447.8895,-1220.8571 447.8895,-1220.8571"/>
<polygon fill="#000000" stroke="#000000" points="447.8895,-1224.3572 457.8895,-1220.8571 447.8895,-1217.3572 447.8895,-1224.3572"/>
</g>
<!-- inters&#45;&gt;accumulation -->
<g id="edge22" class="edge">
<title>inters&#45;&gt;accumulation</title>
<path fill="none" stroke="#000000" d="M269.7885,-846.6667C375.1191,-846.6667 749.6279,-846.6667 749.6279,-846.6667 749.6279,-846.6667 749.6279,-1195.3245 749.6279,-1195.3245"/>
<polygon fill="#000000" stroke="#000000" points="746.128,-1195.3245 749.6279,-1205.3245 753.128,-1195.3246 746.128,-1195.3245"/>
</g>
<!-- inter&#45;parser -->
<g id="node20" class="node">
<title>inter&#45;parser</title>
<polygon fill="none" stroke="#000000" points="329.3242,-694.5 329.3242,-730.5 409.5684,-730.5 409.5684,-694.5 329.3242,-694.5"/>
<text text-anchor="middle" x="369.4463" y="-708.3" font-family="Times,serif" font-size="14.00" fill="#000000">inter&#45;parser</text>
</g>
<!-- inters&#45;&gt;inter&#45;parser -->
<g id="edge23" class="edge">
<title>inters&#45;&gt;inter&#45;parser</title>
<path fill="none" stroke="#000000" d="M269.955,-834.3333C297.4182,-834.3333 335.6279,-834.3333 335.6279,-834.3333 335.6279,-834.3333 335.6279,-740.7397 335.6279,-740.7397"/>
<polygon fill="#000000" stroke="#000000" points="339.128,-740.7396 335.6279,-730.7397 332.128,-740.7397 339.128,-740.7396"/>
</g>
<!-- ladder&#45;&gt;player&#45;user -->
<g id="edge25" class="edge">
<title>ladder&#45;&gt;player&#45;user</title>
<path fill="none" stroke="#000000" d="M396.7766,-594.25C525.6755,-594.25 1066.6279,-594.25 1066.6279,-594.25 1066.6279,-594.25 1066.6279,-738.3918 1066.6279,-738.3918"/>
<polygon fill="#000000" stroke="#000000" points="1063.128,-738.3918 1066.6279,-748.3918 1070.128,-738.3918 1063.128,-738.3918"/>
</g>
<!-- ladder&#45;&gt;web&#45;template -->
<g id="edge26" class="edge">
<title>ladder&#45;&gt;web&#45;template</title>
<path fill="none" stroke="#000000" d="M396.7634,-612.75C416.837,-612.75 440.6279,-612.75 440.6279,-612.75 440.6279,-612.75 440.6279,-1210.2857 440.6279,-1210.2857 440.6279,-1210.2857 447.9803,-1210.2857 447.9803,-1210.2857"/>
<polygon fill="#000000" stroke="#000000" points="447.9803,-1213.7858 457.9803,-1210.2857 447.9802,-1206.7858 447.9803,-1213.7858"/>
</g>
<!-- ladder&#45;parser -->
<g id="node22" class="node">
<title>ladder&#45;parser</title>
<polygon fill="none" stroke="#000000" points="459.3462,-694.5 459.3462,-730.5 548.9146,-730.5 548.9146,-694.5 459.3462,-694.5"/>
<text text-anchor="middle" x="504.1304" y="-708.3" font-family="Times,serif" font-size="14.00" fill="#000000">ladder&#45;parser</text>
</g>
<!-- ladder&#45;&gt;ladder&#45;parser -->
<g id="edge24" class="edge">
<title>ladder&#45;&gt;ladder&#45;parser</title>
<path fill="none" stroke="#000000" d="M396.4774,-603.5C435.9269,-603.5 504.6279,-603.5 504.6279,-603.5 504.6279,-603.5 504.6279,-684.0096 504.6279,-684.0096"/>
<polygon fill="#000000" stroke="#000000" points="501.128,-684.0096 504.6279,-694.0096 508.128,-684.0097 501.128,-684.0096"/>
</g>
<!-- fileOffsetFinder -->
<g id="node24" class="node">
<title>fileOffsetFinder</title>
<polygon fill="none" stroke="#000000" points="316.8555,-.5 316.8555,-36.5 422.0371,-36.5 422.0371,-.5 316.8555,-.5"/>
<text text-anchor="middle" x="369.4463" y="-14.3" font-family="Times,serif" font-size="14.00" fill="#000000">fileOffsetFinder</text>
</g>
<!-- logServer&#45;&gt;fileOffsetFinder -->
<g id="edge27" class="edge">
<title>logServer&#45;&gt;fileOffsetFinder</title>
<path fill="none" stroke="#000000" d="M277.8617,-192.5C299.7174,-192.5 323.6279,-192.5 323.6279,-192.5 323.6279,-192.5 323.6279,-46.7922 323.6279,-46.7922"/>
<polygon fill="#000000" stroke="#000000" points="327.128,-46.7921 323.6279,-36.7922 320.128,-46.7922 327.128,-46.7921"/>
</g>
<!-- players&#45;&gt;player&#45;stats -->
<g id="edge30" class="edge">
<title>players&#45;&gt;player&#45;stats</title>
<path fill="none" stroke="#000000" d="M242.6279,-457.2332C242.6279,-411.4296 242.6279,-295.3333 242.6279,-295.3333 242.6279,-295.3333 868.9634,-295.3333 868.9634,-295.3333"/>
<polygon fill="#000000" stroke="#000000" points="868.9634,-298.8334 878.9634,-295.3333 868.9633,-291.8334 868.9634,-298.8334"/>
</g>
<!-- players&#45;&gt;player&#45;user -->
<g id="edge31" class="edge">
<title>players&#45;&gt;player&#45;user</title>
<path fill="none" stroke="#000000" d="M242.6279,-493.7509C242.6279,-556.6166 242.6279,-760.3333 242.6279,-760.3333 242.6279,-760.3333 1016.5282,-760.3333 1016.5282,-760.3333"/>
<polygon fill="#000000" stroke="#000000" points="1016.5282,-763.8334 1026.5282,-760.3333 1016.5281,-756.8334 1016.5282,-763.8334"/>
</g>
<!-- players&#45;&gt;json&#45;formats -->
<g id="edge28" class="edge">
<title>players&#45;&gt;json&#45;formats</title>
<path fill="none" stroke="#000000" d="M271.0112,-469.3333C361.8342,-469.3333 638.6279,-469.3333 638.6279,-469.3333 638.6279,-469.3333 638.6279,-1195.2313 638.6279,-1195.2313"/>
<polygon fill="#000000" stroke="#000000" points="635.128,-1195.2312 638.6279,-1205.2313 642.128,-1195.2313 635.128,-1195.2312"/>
</g>
<!-- players&#45;&gt;ladder -->
<g id="edge29" class="edge">
<title>players&#45;&gt;ladder</title>
<path fill="none" stroke="#000000" d="M271.0489,-481.6667C308.5233,-481.6667 369.6279,-481.6667 369.6279,-481.6667 369.6279,-481.6667 369.6279,-575.2603 369.6279,-575.2603"/>
<polygon fill="#000000" stroke="#000000" points="366.128,-575.2603 369.6279,-585.2603 373.128,-575.2604 366.128,-575.2603"/>
</g>
<!-- servers&#45;&gt;reference&#45;servers -->
<g id="edge33" class="edge">
<title>servers&#45;&gt;reference&#45;servers</title>
<path fill="none" stroke="#000000" d="M397.4677,-977.5C397.4677,-977.5 853.0734,-977.5 853.0734,-977.5"/>
<polygon fill="#000000" stroke="#000000" points="853.0734,-981.0001 863.0734,-977.5 853.0734,-974.0001 853.0734,-981.0001"/>
</g>
<!-- servers&#45;&gt;web&#45;template -->
<g id="edge34" class="edge">
<title>servers&#45;&gt;web&#45;template</title>
<path fill="none" stroke="#000000" d="M360.6279,-986.6678C360.6279,-1043.7259 360.6279,-1215.5714 360.6279,-1215.5714 360.6279,-1215.5714 447.9354,-1215.5714 447.9354,-1215.5714"/>
<polygon fill="#000000" stroke="#000000" points="447.9354,-1219.0715 457.9354,-1215.5714 447.9354,-1212.0715 447.9354,-1219.0715"/>
</g>
</g>
</svg>
